<?xml version="1.0" standalone="no"?>
<!DOCTYPE svg PUBLIC "-//W3C//DTD SVG 20010904//EN"
 "http://www.w3.org/TR/2001/REC-SVG-20010904/DTD/svg10.dtd">
<svg version="1.0" xmlns="http://www.w3.org/2000/svg"
 width="880.000000pt" height="880.000000pt" viewBox="0 0 880.000000 880.000000"
 preserveAspectRatio="xMidYMid meet">
<metadata>
Created by potrace 1.11, written by Peter Selinger 2001-2013
</metadata>
<g transform="translate(0.000000,880.000000) scale(0.100000,-0.100000)"
fill="#000000" stroke="none">
<path d="M4320 8609 c-41 -51 -86 -104 -100 -118 -14 -14 -37 -42 -51 -61 -15
-19 -35 -44 -46 -55 -10 -11 -49 -58 -88 -105 -38 -47 -72 -87 -75 -90 -3 -3
-28 -32 -55 -65 -28 -33 -52 -62 -55 -65 -3 -3 -27 -32 -55 -65 -27 -33 -52
-62 -55 -65 -3 -3 -25 -30 -49 -60 -25 -30 -55 -66 -67 -80 -13 -14 -47 -54
-76 -90 -29 -36 -55 -67 -58 -70 -3 -3 -28 -32 -56 -65 -27 -33 -59 -71 -71
-85 -11 -14 -40 -47 -63 -75 -23 -27 -52 -61 -64 -75 -11 -14 -52 -63 -90
-110 -38 -47 -74 -89 -80 -95 -6 -5 -33 -37 -61 -70 -27 -33 -57 -69 -67 -80
-9 -11 -58 -69 -109 -130 -50 -60 -110 -132 -132 -159 -23 -27 -55 -65 -72
-85 -16 -20 -40 -47 -51 -61 -43 -50 -200 -238 -229 -274 -16 -21 -41 -50 -55
-65 -14 -15 -41 -46 -60 -70 -19 -24 -42 -51 -50 -60 -8 -9 -44 -52 -80 -96
-36 -44 -68 -82 -71 -85 -4 -3 -66 -77 -139 -165 -73 -88 -140 -167 -149 -176
-9 -10 -30 -34 -47 -55 -94 -115 -223 -269 -249 -298 -5 -6 -27 -32 -48 -58
-21 -26 -43 -53 -50 -60 -7 -7 -57 -67 -112 -133 -55 -66 -104 -125 -110 -131
-5 -6 -28 -32 -50 -59 -22 -26 -45 -53 -50 -59 -6 -6 -45 -53 -88 -105 -43
-51 -83 -98 -88 -105 -55 -65 -54 -60 -9 -107 8 -9 31 -35 50 -59 19 -23 73
-88 120 -144 47 -56 103 -124 125 -150 22 -27 51 -61 65 -77 14 -15 35 -40 47
-56 12 -15 30 -37 40 -48 10 -11 52 -61 93 -110 41 -50 77 -92 80 -95 3 -3 37
-43 75 -90 38 -47 72 -87 75 -90 3 -3 30 -34 59 -70 30 -36 61 -73 70 -82 9
-9 21 -23 26 -30 18 -22 209 -251 232 -278 31 -36 53 -63 92 -110 19 -24 40
-48 45 -54 6 -6 45 -51 86 -101 41 -49 80 -95 85 -101 6 -6 24 -28 42 -50 156
-190 588 -700 595 -702 4 -2 8 -10 8 -17 0 -7 4 -15 8 -17 4 -2 33 -32 63 -68
30 -36 64 -76 76 -90 37 -44 197 -235 238 -284 22 -27 50 -60 63 -75 13 -14
35 -42 50 -61 15 -18 38 -46 52 -61 14 -16 32 -36 40 -46 30 -36 134 -159 169
-202 52 -64 113 -135 120 -141 3 -3 24 -27 45 -55 22 -27 47 -57 55 -66 9 -8
31 -34 49 -57 19 -22 43 -51 54 -64 28 -34 48 -57 98 -118 56 -68 71 -85 154
-182 36 -42 66 -79 66 -83 0 -3 11 -17 24 -30 28 -28 27 -29 93 53 21 25 47
56 58 68 11 12 31 37 45 55 14 18 32 40 40 48 9 9 49 57 90 106 41 50 77 92
80 95 3 3 25 30 50 60 25 30 49 60 55 66 5 6 28 33 50 59 22 27 45 53 50 59 6
6 40 47 75 91 36 43 72 86 80 95 24 26 61 70 110 130 25 30 54 66 65 78 11 13
27 32 35 42 8 9 34 39 56 66 23 27 115 137 205 244 89 107 176 211 193 231 17
19 49 57 71 84 22 27 45 53 50 59 6 6 44 52 85 101 89 107 112 134 125 149 6
6 30 36 55 66 60 73 83 100 95 114 6 6 91 108 190 226 195 232 222 265 245
290 8 8 27 31 41 50 15 19 35 44 45 55 11 11 39 45 64 75 50 61 59 72 152 180
35 41 95 113 133 160 38 47 72 87 75 90 3 3 28 32 55 65 28 33 60 71 71 85 12
14 41 48 64 75 23 28 52 61 63 75 12 14 44 52 71 85 28 33 55 65 61 71 5 6 26
30 45 54 19 24 40 48 45 54 10 11 86 103 115 140 8 10 22 26 30 35 13 13 58
67 137 162 12 14 7 25 -39 80 -29 35 -64 76 -78 91 -14 15 -38 44 -55 64 -16
21 -94 113 -171 206 -78 92 -157 186 -175 209 -19 22 -45 54 -59 69 -14 16
-41 47 -60 71 -19 23 -42 50 -50 59 -8 10 -22 27 -30 37 -8 10 -51 61 -95 113
-44 52 -87 103 -95 114 -8 10 -22 26 -30 35 -9 9 -36 41 -60 71 -25 30 -47 57
-50 60 -5 4 -280 333 -330 393 -8 10 -23 28 -33 40 -10 12 -37 44 -60 71 -23
27 -47 54 -52 60 -6 6 -20 23 -31 38 -12 15 -41 51 -66 80 -25 29 -121 143
-213 253 -92 110 -171 202 -174 205 -4 3 -14 14 -22 26 -12 18 -82 102 -114
138 -6 6 -80 94 -165 196 -84 102 -157 187 -160 190 -3 3 -25 30 -50 60 -25
30 -47 57 -50 60 -4 4 -156 185 -275 329 -11 13 -25 29 -30 35 -6 6 -67 79
-135 161 -69 83 -139 166 -157 185 -17 19 -42 49 -54 65 -13 17 -28 35 -34 41
-6 6 -27 30 -46 54 -18 23 -44 54 -57 68 -12 15 -69 82 -124 150 -56 67 -105
122 -108 122 -3 0 -39 -41 -80 -91z m110 -343 c10 -22 41 -90 70 -151 28 -60
62 -132 75 -160 13 -27 48 -102 78 -165 30 -63 71 -149 90 -190 45 -99 99
-213 155 -330 24 -52 63 -133 85 -180 22 -47 41 -87 42 -90 1 -3 18 -41 39
-85 21 -44 53 -111 71 -150 18 -38 56 -119 85 -180 29 -60 65 -137 80 -170 15
-33 50 -107 77 -165 48 -101 77 -162 148 -315 18 -38 63 -133 100 -210 63
-131 87 -183 90 -195 0 -3 8 -18 17 -35 9 -16 47 -97 86 -180 95 -204 146
-313 199 -425 25 -52 58 -123 74 -158 16 -35 49 -106 74 -158 25 -52 45 -96
45 -97 0 -2 -3586 0 -3612 2 -11 1 4 41 15 41 6 0 8 3 4 6 -3 3 9 36 28 72 18
37 64 135 103 217 38 83 91 195 117 250 26 55 62 132 80 170 53 113 109 233
166 350 29 61 53 112 54 115 3 10 33 76 83 180 27 58 89 188 137 290 81 170
106 224 200 425 44 95 187 398 242 515 44 93 86 182 153 325 18 39 54 115 80
170 26 55 61 129 78 165 38 83 98 210 171 364 32 66 64 135 71 153 17 38 26
34 50 -21z m-344 -227 c-19 -41 -58 -126 -88 -189 -30 -63 -70 -149 -88 -190
-19 -41 -37 -77 -40 -80 -3 -3 -16 -30 -29 -60 -13 -30 -54 -118 -91 -195 -36
-77 -82 -174 -101 -215 -18 -41 -37 -76 -41 -78 -5 -2 -8 -9 -8 -17 0 -7 -29
-73 -64 -146 -35 -74 -78 -165 -96 -204 -18 -38 -59 -125 -91 -193 -33 -67
-59 -124 -59 -126 0 -2 -33 -73 -73 -157 -41 -85 -86 -181 -102 -214 -15 -33
-50 -107 -78 -165 -27 -58 -62 -132 -77 -165 -15 -33 -51 -109 -80 -170 -29
-60 -67 -141 -85 -180 -60 -129 -102 -219 -156 -330 -29 -60 -53 -112 -54
-115 -4 -14 -66 -144 -119 -252 l-61 -123 -425 -1 c-234 -1 -528 -2 -655 -3
-126 -1 -240 -2 -253 -1 l-23 0 23 23 c13 13 39 43 58 66 19 24 47 57 62 74
14 18 53 64 85 102 32 39 68 81 80 95 39 46 98 116 123 147 87 106 109 131
141 168 19 22 69 81 110 130 41 50 79 95 84 101 11 13 22 26 125 149 41 50 85
101 97 115 11 14 40 48 63 75 23 28 52 61 64 75 11 14 43 52 71 85 27 33 54
65 60 71 5 6 21 25 35 43 14 18 34 42 45 55 38 44 70 81 119 141 28 33 52 62
56 65 3 3 25 30 50 60 25 30 47 57 50 60 3 3 27 32 55 65 27 33 52 62 55 65 3
3 31 37 62 75 31 39 67 82 80 96 13 15 41 48 63 75 37 45 57 68 155 184 21 25
87 104 147 175 60 72 118 141 130 155 11 14 40 48 63 75 23 28 52 61 63 75 12
14 66 79 121 145 55 66 105 125 111 131 9 10 26 31 110 132 11 13 27 32 35 41
8 9 44 52 80 95 36 44 80 96 97 115 18 20 33 40 33 45 0 5 2 7 5 4 3 -3 -10
-39 -29 -79z m614 61 c0 -5 8 -17 18 -27 10 -10 54 -61 97 -113 44 -52 82 -97
85 -100 3 -3 16 -18 29 -35 12 -16 42 -52 66 -80 24 -27 85 -99 135 -160 98
-117 157 -187 187 -222 10 -11 29 -35 43 -52 14 -18 34 -42 46 -54 11 -12 99
-116 195 -232 95 -115 178 -215 184 -221 21 -23 62 -71 105 -124 43 -52 84
-100 105 -124 6 -6 42 -49 80 -96 38 -47 72 -87 75 -90 3 -3 75 -88 160 -190
85 -102 162 -194 172 -205 9 -11 72 -85 139 -165 66 -80 138 -165 159 -190 89
-105 283 -337 298 -355 16 -19 114 -134 137 -162 6 -6 24 -28 42 -50 17 -21
97 -117 178 -213 80 -96 156 -186 167 -200 12 -14 44 -52 72 -85 28 -33 56
-67 63 -75 10 -13 -24 -15 -300 -13 -172 1 -477 2 -678 2 l-366 1 -46 98 c-25
53 -69 147 -98 207 -28 61 -72 153 -96 205 -25 52 -62 131 -83 175 -83 179
-105 224 -148 315 -25 52 -62 131 -82 175 -21 44 -57 121 -80 170 -23 50 -59
126 -80 170 -21 44 -57 121 -80 170 -23 50 -60 127 -81 173 -46 96 -106 225
-159 337 -86 183 -124 264 -155 330 -18 39 -53 113 -77 165 -25 52 -61 129
-81 170 -68 146 -120 256 -169 360 -28 58 -63 132 -78 165 -15 33 -42 89 -59
125 -49 99 -61 130 -50 130 5 0 9 -4 9 -10z m-2219 -3895 c29 -60 70 -148 92
-195 22 -47 68 -145 103 -218 35 -73 64 -135 64 -136 0 -2 32 -70 71 -152 39
-82 84 -176 99 -209 15 -33 46 -98 68 -145 22 -47 55 -119 75 -160 19 -41 60
-129 92 -195 31 -66 69 -145 82 -175 14 -30 48 -102 75 -160 28 -58 63 -132
78 -165 15 -33 51 -109 80 -170 29 -60 63 -135 77 -165 14 -30 56 -119 94
-198 38 -80 69 -146 69 -147 0 -2 34 -74 75 -160 41 -86 85 -177 96 -203 12
-26 50 -107 85 -180 35 -74 64 -135 64 -137 0 -2 24 -54 53 -115 30 -60 53
-110 51 -110 -2 0 -47 53 -101 118 -54 64 -102 122 -108 128 -21 24 -62 72
-105 124 -25 30 -49 60 -55 66 -13 14 -65 76 -196 234 -57 69 -106 127 -109
130 -3 3 -28 32 -55 65 -28 33 -52 62 -55 65 -3 3 -15 17 -26 32 -20 25 -106
127 -129 152 -6 6 -28 33 -50 61 -22 27 -47 56 -55 65 -8 9 -31 35 -50 59 -37
44 -48 58 -110 131 -20 25 -115 137 -209 250 -95 113 -191 227 -214 254 -23
27 -48 57 -55 68 -8 10 -23 29 -35 41 -30 31 -109 125 -127 151 -8 12 -19 26
-25 31 -6 6 -34 37 -61 70 -27 33 -51 62 -54 65 -3 3 -25 30 -50 60 -25 30
-49 60 -55 66 -5 6 -30 35 -55 64 -25 30 -61 72 -80 95 -19 22 -53 63 -75 89
-59 72 -214 257 -239 286 -12 14 -95 113 -185 220 -90 107 -184 219 -209 248
-59 69 -82 99 -82 105 0 3 89 6 197 7 108 0 198 1 199 3 1 1 209 2 462 2 l461
1 52 -111z m3709 107 c0 -1 -27 -59 -60 -129 -33 -69 -60 -127 -60 -129 0 -2
-29 -63 -64 -136 -120 -252 -156 -327 -156 -331 0 -3 -34 -76 -76 -163 -100
-208 -194 -409 -225 -481 -8 -18 -17 -33 -21 -33 -5 0 -8 -6 -8 -14 0 -8 -29
-75 -64 -148 -35 -73 -78 -164 -96 -203 -18 -38 -54 -115 -80 -170 -51 -108
-173 -366 -239 -508 -23 -48 -59 -125 -80 -170 -112 -235 -152 -323 -157 -344
-4 -13 -9 -23 -13 -23 -3 0 -12 -15 -20 -33 -19 -44 -68 -150 -131 -282 -29
-60 -65 -137 -80 -170 -15 -33 -55 -118 -89 -189 -33 -70 -61 -132 -61 -137 0
-5 -4 -9 -9 -9 -7 0 -20 25 -36 70 -1 3 -20 43 -42 90 -22 47 -60 126 -83 175
-23 50 -60 127 -81 173 -93 196 -121 257 -158 335 -21 45 -54 116 -74 157 -19
41 -53 114 -75 161 -62 131 -115 243 -172 364 -29 61 -63 135 -77 165 -14 30
-49 105 -78 165 -28 61 -67 142 -85 180 -75 160 -120 255 -158 335 -21 47 -55
119 -75 160 -57 122 -111 238 -167 355 -29 61 -65 137 -80 170 -15 33 -48 103
-72 155 -25 52 -62 131 -83 175 -20 44 -54 116 -75 160 -88 185 -120 255 -120
258 0 2 805 3 1790 3 984 -1 1790 -2 1790 -4z m1500 -13 c0 -3 -8 -14 -17 -25
-10 -10 -63 -73 -118 -139 -55 -66 -102 -122 -105 -125 -3 -3 -39 -45 -80 -95
-41 -49 -77 -92 -80 -95 -3 -3 -39 -45 -80 -95 -41 -49 -79 -95 -85 -101 -5
-7 -26 -31 -45 -54 -19 -23 -40 -47 -45 -54 -6 -6 -30 -36 -55 -66 -25 -30
-47 -57 -50 -60 -13 -13 -79 -90 -110 -130 -19 -25 -44 -54 -55 -65 -11 -12
-38 -44 -59 -71 -22 -27 -44 -53 -50 -59 -6 -5 -27 -30 -47 -55 -20 -25 -45
-55 -55 -67 -11 -12 -26 -30 -34 -40 -8 -10 -50 -60 -92 -111 -43 -50 -113
-134 -155 -184 -43 -51 -80 -95 -83 -98 -3 -3 -50 -59 -104 -125 -55 -66 -104
-124 -110 -130 -6 -5 -23 -26 -38 -47 -15 -20 -34 -43 -43 -51 -8 -9 -78 -91
-156 -184 -77 -92 -148 -177 -157 -188 -10 -11 -64 -76 -122 -145 -57 -69
-107 -127 -110 -130 -3 -3 -35 -41 -70 -85 -36 -44 -70 -84 -76 -90 -6 -5 -28
-32 -50 -60 -21 -27 -44 -54 -50 -60 -5 -5 -35 -39 -64 -75 -30 -36 -61 -72
-70 -81 -8 -9 -31 -36 -50 -60 -19 -24 -45 -54 -57 -68 -13 -13 -23 -27 -23
-30 0 -3 -22 -29 -49 -58 -27 -29 -47 -54 -46 -55 2 -2 -15 -21 -37 -43 l-39
-40 35 70 c19 39 50 104 69 145 19 41 58 125 87 185 53 112 74 157 153 325
165 352 286 608 324 690 90 189 131 276 153 325 12 28 55 118 94 200 40 83
101 213 137 290 35 77 67 142 71 143 5 2 8 10 8 17 0 7 20 54 45 104 25 50 45
93 45 95 0 2 38 83 85 181 47 97 85 178 85 180 0 1 34 73 75 160 41 86 75 158
75 160 0 1 36 78 80 169 l80 167 660 -3 c363 -2 660 -6 660 -9z"/>
</g>
</svg>
