<svg width="108" height="116" viewBox="0 0 108 116" fill="none" xmlns="http://www.w3.org/2000/svg">
<path d="M53.8072 0L107.614 58L53.8072 116L0 58L53.8072 0Z" fill="black"/>
<path d="M15.3203 64V63.6045L16.6738 63.5166V51.9414L15.3203 51.8535V51.458H20.0225C20.5264 51.458 20.9834 51.4814 21.3936 51.5283C21.8096 51.5752 22.2197 51.6631 22.624 51.792C23.0283 51.915 23.3652 52.0791 23.6348 52.2842C23.9102 52.4893 24.1299 52.7617 24.2939 53.1016C24.4639 53.4355 24.5488 53.8281 24.5488 54.2793C24.5488 54.6367 24.4697 54.9678 24.3115 55.2725C24.1533 55.5713 23.9512 55.8203 23.7051 56.0195C23.4648 56.2188 23.1836 56.3975 22.8613 56.5557C22.5391 56.708 22.2285 56.8252 21.9297 56.9072C21.6309 56.9893 21.332 57.0508 21.0332 57.0918V57.127C21.625 57.127 22.1699 57.1973 22.668 57.3379C23.166 57.4727 23.5996 57.6748 23.9688 57.9443C24.3438 58.2139 24.6367 58.5684 24.8477 59.0078C25.0586 59.4414 25.1641 59.9365 25.1641 60.4932C25.1641 60.9971 25.0732 61.4512 24.8916 61.8555C24.71 62.2539 24.4668 62.585 24.1621 62.8486C23.8574 63.1123 23.4971 63.332 23.0811 63.5078C22.6709 63.6836 22.2432 63.8096 21.7979 63.8857C21.3525 63.9619 20.8867 64 20.4004 64H15.3203ZM18.9238 63.4287C19.2402 63.4873 19.5449 63.5166 19.8379 63.5166C20.7695 63.5166 21.499 63.2471 22.0264 62.708C22.5596 62.1689 22.8262 61.4365 22.8262 60.5107C22.8262 59.5205 22.5508 58.7646 22 58.2432C21.4551 57.7158 20.6992 57.4521 19.7324 57.4521C19.457 57.4521 19.1875 57.4727 18.9238 57.5137V63.4287ZM18.9238 56.916C19.1699 56.9512 19.3955 56.9688 19.6006 56.9688C21.376 56.9688 22.2637 56.0898 22.2637 54.332C22.2637 53.582 22.0645 52.9961 21.666 52.5742C21.2676 52.1523 20.6582 51.9414 19.8379 51.9414C19.5449 51.9414 19.2402 51.9707 18.9238 52.0293V56.916ZM26.6494 59.6406C26.6494 58.7559 26.8193 57.9531 27.1592 57.2324C27.5049 56.5117 27.9854 55.9463 28.6006 55.5361C29.2217 55.1201 29.9219 54.9121 30.7012 54.9121C31.3457 54.9121 31.9258 55.0469 32.4414 55.3164C32.9629 55.5801 33.3789 55.9346 33.6895 56.3799C34.0059 56.8252 34.2461 57.3232 34.4102 57.874C34.5801 58.4189 34.665 58.9902 34.665 59.5879C34.665 60.4492 34.501 61.2344 34.1729 61.9434C33.8447 62.6523 33.373 63.2178 32.7578 63.6396C32.1484 64.0557 31.457 64.2637 30.6836 64.2637C29.998 64.2637 29.3916 64.1436 28.8643 63.9033C28.3428 63.6572 27.9209 63.3203 27.5986 62.8926C27.2822 62.459 27.0449 61.9697 26.8867 61.4248C26.7285 60.8799 26.6494 60.2852 26.6494 59.6406ZM28.8994 59.5352C28.8994 60.1855 28.9316 60.7686 28.9961 61.2842C29.0605 61.7939 29.1602 62.248 29.2949 62.6465C29.4297 63.0391 29.6113 63.3408 29.8398 63.5518C30.0684 63.7627 30.3379 63.8682 30.6484 63.8682C31.8262 63.8682 32.415 62.459 32.415 59.6406C32.415 58.9316 32.3857 58.3223 32.3271 57.8125C32.2744 57.3027 32.1807 56.8545 32.0459 56.4678C31.917 56.0752 31.7354 55.7852 31.501 55.5977C31.2666 55.4043 30.9824 55.3076 30.6484 55.3076C30.3379 55.3076 30.0684 55.4131 29.8398 55.624C29.6113 55.835 29.4297 56.1338 29.2949 56.5205C29.1602 56.9072 29.0605 57.3496 28.9961 57.8477C28.9316 58.3457 28.8994 58.9082 28.8994 59.5352ZM36.0713 59.6406C36.0713 58.7559 36.2412 57.9531 36.5811 57.2324C36.9268 56.5117 37.4072 55.9463 38.0225 55.5361C38.6436 55.1201 39.3438 54.9121 40.123 54.9121C40.7676 54.9121 41.3477 55.0469 41.8633 55.3164C42.3848 55.5801 42.8008 55.9346 43.1113 56.3799C43.4277 56.8252 43.668 57.3232 43.832 57.874C44.002 58.4189 44.0869 58.9902 44.0869 59.5879C44.0869 60.4492 43.9229 61.2344 43.5947 61.9434C43.2666 62.6523 42.7949 63.2178 42.1797 63.6396C41.5703 64.0557 40.8789 64.2637 40.1055 64.2637C39.4199 64.2637 38.8135 64.1436 38.2861 63.9033C37.7646 63.6572 37.3428 63.3203 37.0205 62.8926C36.7041 62.459 36.4668 61.9697 36.3086 61.4248C36.1504 60.8799 36.0713 60.2852 36.0713 59.6406ZM38.3213 59.5352C38.3213 60.1855 38.3535 60.7686 38.418 61.2842C38.4824 61.7939 38.582 62.248 38.7168 62.6465C38.8516 63.0391 39.0332 63.3408 39.2617 63.5518C39.4902 63.7627 39.7598 63.8682 40.0703 63.8682C41.248 63.8682 41.8369 62.459 41.8369 59.6406C41.8369 58.9316 41.8076 58.3223 41.749 57.8125C41.6963 57.3027 41.6025 56.8545 41.4678 56.4678C41.3389 56.0752 41.1572 55.7852 40.9229 55.5977C40.6885 55.4043 40.4043 55.3076 40.0703 55.3076C39.7598 55.3076 39.4902 55.4131 39.2617 55.624C39.0332 55.835 38.8516 56.1338 38.7168 56.5205C38.582 56.9072 38.4824 57.3496 38.418 57.8477C38.3535 58.3457 38.3213 58.9082 38.3213 59.5352ZM44.834 55.5537V55.1758H46.3281V53.2334L47.084 53.1543L48.3232 52.8291L48.4902 53.084V55.1758H50.415V55.5537L48.4902 55.6328V61.8203C48.4902 62.1777 48.5312 62.4766 48.6133 62.7168C48.7012 62.9512 48.8125 63.1123 48.9473 63.2002C49.0879 63.2881 49.1992 63.3438 49.2812 63.3672C49.3691 63.3906 49.46 63.4023 49.5537 63.4023C49.7354 63.4023 49.9082 63.3643 50.0723 63.2881C50.2422 63.2061 50.3945 63.0889 50.5293 62.9365C50.6699 62.7842 50.7842 62.6465 50.8721 62.5234C50.96 62.3945 51.0596 62.2393 51.1709 62.0576L51.5488 62.2861C51.2383 62.8018 50.9688 63.1768 50.7402 63.4111C50.1836 63.9795 49.542 64.2637 48.8154 64.2637C48.54 64.2637 48.2939 64.2432 48.0771 64.2021C47.8662 64.167 47.6465 64.0879 47.418 63.9648C47.1895 63.8418 46.999 63.6777 46.8467 63.4727C46.6943 63.2617 46.5684 62.9746 46.4688 62.6113C46.375 62.2422 46.3281 61.8115 46.3281 61.3193V55.6328L44.834 55.5537ZM55.0996 63.833C55.7676 63.833 56.2598 63.71 56.5762 63.4639C56.8984 63.2178 57.0596 62.9102 57.0596 62.541C57.0596 62.3477 57.0273 62.1777 56.9629 62.0312C56.9043 61.8789 56.8047 61.7354 56.6641 61.6006C56.5293 61.46 56.3477 61.3193 56.1191 61.1787C55.8965 61.0322 55.6182 60.8682 55.2842 60.6865C54.9912 60.5166 54.6807 60.3408 54.3525 60.1592C54.0244 59.9717 53.7197 59.7578 53.4385 59.5176C53.1631 59.2715 52.9316 58.9873 52.7441 58.665C52.5625 58.3428 52.4717 57.9561 52.4717 57.5049C52.4717 57.1064 52.5479 56.7461 52.7002 56.4238C52.8525 56.1016 53.0635 55.8291 53.333 55.6064C53.6084 55.3779 53.9336 55.2021 54.3086 55.0791C54.6895 54.9561 55.1055 54.8945 55.5566 54.8945C55.8965 54.8945 56.2363 54.9385 56.5762 55.0264C56.9219 55.1084 57.2324 55.2344 57.5078 55.4043C57.7832 55.5742 58.0059 55.7852 58.1758 56.0371C58.3457 56.2891 58.4307 56.582 58.4307 56.916C58.4307 57.0449 58.4072 57.1709 58.3604 57.2939C58.3193 57.417 58.2549 57.5283 58.167 57.6279C58.0791 57.7275 57.9707 57.8096 57.8418 57.874C57.7188 57.9326 57.5752 57.9619 57.4111 57.9619C57.0713 57.9619 56.8164 57.8682 56.6465 57.6807C56.4766 57.4932 56.3916 57.2646 56.3916 56.9951C56.3916 56.8252 56.415 56.6816 56.4619 56.5645C56.5088 56.4414 56.5703 56.3418 56.6465 56.2656C56.7285 56.1836 56.8193 56.125 56.9189 56.0898C57.0244 56.0488 57.1299 56.0283 57.2354 56.0283H57.3145V56.0107C57.2559 55.917 57.1709 55.8291 57.0596 55.7471C56.9482 55.6592 56.8164 55.583 56.6641 55.5186C56.5117 55.4482 56.3418 55.3926 56.1543 55.3516C55.9668 55.3105 55.7676 55.29 55.5566 55.29C55.2461 55.29 54.9824 55.3311 54.7656 55.4131C54.5488 55.4951 54.3701 55.6006 54.2295 55.7295C54.0947 55.8525 53.9951 55.9902 53.9307 56.1426C53.8662 56.2949 53.834 56.4414 53.834 56.582C53.834 56.752 53.8604 56.8984 53.9131 57.0215C53.9658 57.1445 54.0566 57.2705 54.1855 57.3994C54.3203 57.5225 54.502 57.6572 54.7305 57.8037C54.9648 57.9502 55.2578 58.126 55.6094 58.3311C55.9492 58.5068 56.3066 58.6943 56.6816 58.8936C57.0625 59.0928 57.4111 59.3242 57.7275 59.5879C58.0439 59.8457 58.3047 60.1445 58.5098 60.4844C58.7207 60.8184 58.8262 61.2109 58.8262 61.6621C58.8262 62.043 58.7529 62.3916 58.6064 62.708C58.4658 63.0244 58.2432 63.2969 57.9385 63.5254C57.6396 63.7539 57.2559 63.9297 56.7871 64.0527C56.3242 64.1816 55.7734 64.2461 55.1348 64.2461C54.8301 64.2461 54.5049 64.208 54.1592 64.1318C53.8135 64.0557 53.4941 63.9355 53.2012 63.7715C52.9082 63.6016 52.665 63.3848 52.4717 63.1211C52.2783 62.8516 52.1816 62.5234 52.1816 62.1367C52.1816 61.9727 52.208 61.8145 52.2607 61.6621C52.3135 61.5098 52.3867 61.375 52.4805 61.2578C52.5801 61.1348 52.7002 61.0381 52.8408 60.9678C52.9814 60.8975 53.1426 60.8623 53.3242 60.8623C53.4824 60.8623 53.623 60.8916 53.7461 60.9502C53.8691 61.0029 53.9717 61.0762 54.0537 61.1699C54.1416 61.2578 54.209 61.3633 54.2559 61.4863C54.3027 61.6094 54.3291 61.7412 54.335 61.8818C54.335 62.0459 54.3057 62.1924 54.2471 62.3213C54.1885 62.4443 54.1123 62.5469 54.0186 62.6289C53.9248 62.7109 53.8164 62.7754 53.6934 62.8223C53.5762 62.8633 53.459 62.8838 53.3418 62.8838C53.3184 62.8838 53.292 62.8838 53.2627 62.8838C53.2393 62.8838 53.2158 62.8809 53.1924 62.875V62.8926C53.2451 63.0098 53.3242 63.124 53.4297 63.2354C53.5352 63.3467 53.667 63.4463 53.8252 63.5342C53.9893 63.6221 54.1768 63.6953 54.3877 63.7539C54.6045 63.8066 54.8418 63.833 55.0996 63.833ZM59.4766 55.5537V55.1758H60.9707V53.2334L61.7266 53.1543L62.9658 52.8291L63.1328 53.084V55.1758H65.0576V55.5537L63.1328 55.6328V61.8203C63.1328 62.1777 63.1738 62.4766 63.2559 62.7168C63.3438 62.9512 63.4551 63.1123 63.5898 63.2002C63.7305 63.2881 63.8418 63.3438 63.9238 63.3672C64.0117 63.3906 64.1025 63.4023 64.1963 63.4023C64.3779 63.4023 64.5508 63.3643 64.7148 63.2881C64.8848 63.2061 65.0371 63.0889 65.1719 62.9365C65.3125 62.7842 65.4268 62.6465 65.5146 62.5234C65.6025 62.3945 65.7021 62.2393 65.8135 62.0576L66.1914 62.2861C65.8809 62.8018 65.6113 63.1768 65.3828 63.4111C64.8262 63.9795 64.1846 64.2637 63.458 64.2637C63.1826 64.2637 62.9365 64.2432 62.7197 64.2021C62.5088 64.167 62.2891 64.0879 62.0605 63.9648C61.832 63.8418 61.6416 63.6777 61.4893 63.4727C61.3369 63.2617 61.2109 62.9746 61.1113 62.6113C61.0176 62.2422 60.9707 61.8115 60.9707 61.3193V55.6328L59.4766 55.5537ZM66.5605 55.8789V55.5186L68.3975 55.3252L69.6367 55L69.7598 55.2549V56.7666H69.7949C69.9121 56.5322 70.0557 56.3037 70.2256 56.0811C70.3955 55.8584 70.5801 55.6621 70.7793 55.4922C70.9844 55.3164 71.2012 55.1758 71.4297 55.0703C71.6582 54.9648 71.8896 54.9121 72.124 54.9121C72.5811 54.9121 72.9326 55.0352 73.1787 55.2812C73.4307 55.5215 73.5566 55.8438 73.5566 56.248C73.5566 56.418 73.5303 56.5762 73.4775 56.7227C73.4248 56.8633 73.3486 56.9863 73.249 57.0918C73.1553 57.1973 73.0381 57.2822 72.8975 57.3467C72.7627 57.4053 72.6133 57.4346 72.4492 57.4346C72.2734 57.4346 72.1152 57.4053 71.9746 57.3467C71.834 57.2881 71.7139 57.209 71.6143 57.1094C71.5205 57.0098 71.4473 56.8955 71.3945 56.7666C71.3418 56.6318 71.3154 56.4883 71.3154 56.3359C71.3154 56.0254 71.3799 55.7969 71.5088 55.6504V55.5977C71.2979 55.6445 71.0898 55.7559 70.8848 55.9316C70.6855 56.1074 70.5039 56.3477 70.3398 56.6523C70.1758 56.9512 70.0439 57.3145 69.9443 57.7422C69.8447 58.1641 69.7949 58.6416 69.7949 59.1748V63.5518L70.7002 63.6396V64H66.7363V63.6396L67.6416 63.5518V55.8789H66.5605ZM74.3213 62.0928C74.3213 61.8057 74.3652 61.5303 74.4531 61.2666C74.5469 60.9971 74.6963 60.7393 74.9014 60.4932C75.1064 60.2471 75.3584 60.0332 75.6572 59.8516C75.9561 59.6699 76.3252 59.5264 76.7646 59.4209C77.21 59.3096 77.7021 59.2539 78.2412 59.2539C78.5283 59.2539 78.8008 59.2656 79.0586 59.2891V58.0762C79.0586 57.6895 79.0498 57.376 79.0322 57.1357C79.0205 56.8955 78.9854 56.6494 78.9268 56.3975C78.8682 56.1396 78.7832 55.9434 78.6719 55.8086C78.5664 55.668 78.4141 55.5537 78.2148 55.4658C78.0215 55.3721 77.7842 55.3252 77.5029 55.3252C76.6475 55.3252 76.0234 55.6621 75.6309 56.3359V56.3711C75.7305 56.3535 75.8213 56.3447 75.9033 56.3447C76.208 56.3447 76.4482 56.4385 76.624 56.626C76.7998 56.8135 76.8877 57.083 76.8877 57.4346C76.8877 57.7393 76.7822 57.9971 76.5713 58.208C76.3604 58.4131 76.0967 58.5156 75.7803 58.5156C75.4346 58.5156 75.1621 58.3984 74.9629 58.1641C74.7637 57.9297 74.6641 57.6543 74.6641 57.3379C74.6641 56.6465 74.9805 56.0693 75.6133 55.6064C76.252 55.1436 76.9844 54.9121 77.8105 54.9121C78.3965 54.9121 78.8945 54.9736 79.3047 55.0967C79.7207 55.2197 80.0518 55.3838 80.2979 55.5889C80.5439 55.7881 80.7344 56.0635 80.8691 56.415C81.0098 56.7607 81.1006 57.1152 81.1416 57.4785C81.1885 57.8418 81.2119 58.2871 81.2119 58.8145V63.5518L82.1172 63.6396V64H79.3223L79.0762 62.6113H79.0586C78.7715 63.168 78.4229 63.584 78.0127 63.8594C77.6084 64.1289 77.1162 64.2637 76.5361 64.2637C75.8213 64.2637 75.2734 64.0498 74.8926 63.6221C74.5117 63.1943 74.3213 62.6846 74.3213 62.0928ZM76.4482 61.9082C76.4482 62.377 76.5361 62.7578 76.7119 63.0508C76.8877 63.3379 77.1455 63.4814 77.4854 63.4814C77.8838 63.4814 78.2441 63.2324 78.5664 62.7344C78.8945 62.2363 79.0586 61.627 79.0586 60.9062V59.6934C78.8242 59.6641 78.6338 59.6494 78.4873 59.6494C78.1826 59.6494 77.9102 59.6904 77.6699 59.7725C77.4355 59.8545 77.248 59.9658 77.1074 60.1064C76.9668 60.2471 76.8496 60.3965 76.7559 60.5547C76.6621 60.707 76.5947 60.877 76.5537 61.0645C76.5127 61.252 76.4834 61.4072 76.4658 61.5303C76.4541 61.6533 76.4482 61.7793 76.4482 61.9082ZM82.9346 55.8789V55.5186L84.7715 55.3252L86.0107 55L86.1338 55.2549V56.3975H86.1689C86.5029 55.8291 86.8545 55.4395 87.2236 55.2285C87.5928 55.0176 88.0352 54.9121 88.5508 54.9121C88.6855 54.9121 88.8291 54.9268 88.9814 54.9561C89.1338 54.9854 89.3096 55.0439 89.5088 55.1318C89.7139 55.2139 89.9102 55.3223 90.0977 55.457C90.2852 55.5918 90.4697 55.7793 90.6514 56.0195C90.8389 56.2598 91 56.5352 91.1348 56.8457C91.2695 57.1504 91.3779 57.5312 91.46 57.9883C91.5479 58.4453 91.5918 58.9492 91.5918 59.5C91.5918 60.1621 91.5098 60.7773 91.3457 61.3457C91.1816 61.9082 90.9414 62.4092 90.625 62.8486C90.3086 63.2881 89.8926 63.6338 89.377 63.8857C88.8613 64.1377 88.2725 64.2637 87.6104 64.2637C87.0303 64.2637 86.5498 64.1143 86.1689 63.8154V67.7266L87.0742 67.8145V68.1748H83.1104V67.8145L84.0156 67.7266V55.8789H82.9346ZM86.1689 63.3496C86.5029 63.6484 86.8633 63.7979 87.25 63.7979C87.5312 63.7979 87.7803 63.7422 87.9971 63.6309C88.2197 63.5195 88.4014 63.3818 88.542 63.2178C88.6885 63.0537 88.8145 62.8398 88.9199 62.5762C89.0254 62.3066 89.1045 62.0547 89.1572 61.8203C89.21 61.5801 89.251 61.2959 89.2803 60.9678C89.3096 60.6396 89.3271 60.3672 89.333 60.1504C89.3389 59.9336 89.3418 59.6758 89.3418 59.377C89.3418 58.4277 89.2744 57.6689 89.1396 57.1006C89.0049 56.5264 88.8291 56.1367 88.6123 55.9316C88.3955 55.7207 88.123 55.6152 87.7949 55.6152C87.3379 55.6152 86.9512 55.8555 86.6348 56.3359C86.3242 56.8164 86.1689 57.3555 86.1689 57.9531V63.3496Z" fill="white"/>
</svg>
