<svg width="108" height="116" viewBox="0 0 108 116" fill="none" xmlns="http://www.w3.org/2000/svg">
<path d="M53.8072 0L107.614 58L53.8072 116L0 58L53.8072 0Z" fill="black"/>
<path d="M39.0068 57.9531C39.0068 57.3027 39.0771 56.6611 39.2178 56.0283C39.3584 55.3955 39.5811 54.7832 39.8857 54.1914C40.1963 53.5996 40.5742 53.0811 41.0195 52.6357C41.4648 52.1846 42.0156 51.8242 42.6719 51.5547C43.3281 51.2852 44.0488 51.1504 44.834 51.1504C45.748 51.1504 46.5537 51.4023 47.251 51.9062C47.9482 52.4043 48.2969 52.9961 48.2969 53.6816C48.2969 54.0273 48.1855 54.3232 47.9629 54.5693C47.7461 54.8154 47.4473 54.9385 47.0664 54.9385C46.7031 54.9385 46.4072 54.8271 46.1787 54.6045C45.9502 54.376 45.8359 54.0889 45.8359 53.7432C45.8359 53.4033 45.9443 53.1191 46.1611 52.8906C46.3779 52.6562 46.6475 52.5391 46.9697 52.5391C47.0342 52.5391 47.0811 52.542 47.1104 52.5479V52.5127C47.0225 52.3486 46.7852 52.1641 46.3984 51.959C46.0117 51.7539 45.5459 51.6514 45.001 51.6514C43.9346 51.6514 43.0586 52.2051 42.373 53.3125C41.6875 54.4199 41.3447 55.8818 41.3447 57.6982C41.3447 58.4775 41.4121 59.2158 41.5469 59.9131C41.6816 60.6045 41.8809 61.2344 42.1445 61.8027C42.4141 62.3711 42.7744 62.8252 43.2256 63.165C43.6768 63.499 44.1924 63.666 44.7725 63.666C45.6045 63.666 46.3281 63.4199 46.9434 62.9277C47.5645 62.4297 48.0449 61.7939 48.3848 61.0205L48.7979 61.2139C47.96 63.2764 46.5508 64.3076 44.5703 64.3076C43.709 64.3076 42.9473 64.1875 42.2852 63.9473C41.623 63.707 41.0869 63.3906 40.6768 62.998C40.2725 62.5996 39.9414 62.1191 39.6836 61.5566C39.4258 60.9941 39.2471 60.4229 39.1475 59.8428C39.0537 59.2627 39.0068 58.6328 39.0068 57.9531ZM54.2207 51.6338C53.7988 51.6338 53.4268 51.6836 53.1045 51.7832C52.7881 51.8828 52.5215 52.0234 52.3047 52.2051C52.0879 52.3867 51.9238 52.6064 51.8125 52.8643C51.707 53.1162 51.6543 53.3945 51.6543 53.6992C51.6543 53.916 51.6836 54.1299 51.7422 54.3408C51.8008 54.5518 51.9268 54.7686 52.1201 54.9912C52.3135 55.208 52.5918 55.4336 52.9551 55.668C53.3242 55.9023 53.8193 56.1543 54.4404 56.4238C55.1553 56.752 55.7588 57.0596 56.251 57.3467C56.749 57.6338 57.1533 57.9385 57.4639 58.2607C57.7744 58.583 57.9971 58.9463 58.1318 59.3506C58.2725 59.749 58.3428 60.2266 58.3428 60.7832C58.3428 61.2051 58.2578 61.627 58.0879 62.0488C57.918 62.4707 57.6602 62.8486 57.3145 63.1826C56.9746 63.5166 56.5439 63.7891 56.0225 64C55.5068 64.2051 54.9004 64.3076 54.2031 64.3076C53.4297 64.3076 52.7793 64.2344 52.252 64.0879C51.7246 63.9473 51.2998 63.7627 50.9775 63.5342C50.6611 63.3057 50.4326 63.0479 50.292 62.7607C50.1514 62.4678 50.0811 62.1748 50.0811 61.8818C50.0811 61.6885 50.1104 61.5098 50.1689 61.3457C50.2275 61.1758 50.3125 61.0293 50.4238 60.9062C50.541 60.7773 50.6816 60.6777 50.8457 60.6074C51.0156 60.5312 51.2061 60.4932 51.417 60.4932C51.6104 60.4932 51.7861 60.5283 51.9443 60.5986C52.1025 60.6631 52.2344 60.7539 52.3398 60.8711C52.4512 60.9824 52.5361 61.1172 52.5947 61.2754C52.6592 61.4277 52.6914 61.5947 52.6914 61.7764C52.6914 62.1924 52.5713 62.5059 52.3311 62.7168C52.0908 62.9277 51.7803 63.0332 51.3994 63.0332V63.0684C51.4404 63.1152 51.5195 63.1797 51.6367 63.2617C51.7598 63.3438 51.9268 63.4258 52.1377 63.5078C52.3545 63.5898 52.6182 63.6631 52.9287 63.7275C53.2451 63.7861 53.6172 63.8154 54.0449 63.8154C54.3965 63.8154 54.7451 63.7686 55.0908 63.6748C55.4424 63.5811 55.7529 63.4463 56.0225 63.2705C56.2979 63.0947 56.5205 62.8809 56.6904 62.6289C56.8604 62.377 56.9453 62.0928 56.9453 61.7764C56.9453 61.5068 56.8955 61.2549 56.7959 61.0205C56.6963 60.7861 56.5088 60.5488 56.2334 60.3086C55.958 60.0625 55.5742 59.8018 55.082 59.5264C54.5957 59.2451 53.96 58.9287 53.1748 58.5771C52.5947 58.3311 52.1172 58.0615 51.7422 57.7686C51.373 57.4697 51.0801 57.1562 50.8633 56.8281C50.6523 56.4941 50.5059 56.1484 50.4238 55.791C50.3418 55.4277 50.3008 55.0557 50.3008 54.6748C50.3008 54.1943 50.3887 53.7402 50.5645 53.3125C50.7402 52.8848 50.9951 52.5127 51.3291 52.1963C51.6631 51.874 52.0732 51.6191 52.5596 51.4316C53.0518 51.2441 53.6113 51.1504 54.2383 51.1504C54.8418 51.1504 55.3662 51.2207 55.8115 51.3613C56.2627 51.502 56.6348 51.6895 56.9277 51.9238C57.2207 52.1523 57.4404 52.4219 57.5869 52.7324C57.7334 53.0371 57.8066 53.3564 57.8066 53.6904C57.8066 53.8662 57.7773 54.0361 57.7188 54.2002C57.6602 54.3584 57.5752 54.499 57.4639 54.6221C57.3525 54.7393 57.2148 54.8359 57.0508 54.9121C56.8867 54.9824 56.6992 55.0176 56.4883 55.0176C56.2949 55.0176 56.1191 54.9854 55.9609 54.9209C55.8027 54.8564 55.665 54.7686 55.5479 54.6572C55.4365 54.5459 55.3486 54.4141 55.2842 54.2617C55.2256 54.1094 55.1963 53.9424 55.1963 53.7607C55.1963 53.5557 55.2314 53.374 55.3018 53.2158C55.3721 53.0518 55.4658 52.917 55.583 52.8115C55.7061 52.7002 55.8496 52.6182 56.0137 52.5654C56.1777 52.5068 56.3535 52.4775 56.541 52.4775V52.4424C56.5059 52.4014 56.4355 52.3369 56.3301 52.249C56.2246 52.1553 56.0781 52.0645 55.8906 51.9766C55.7031 51.8828 55.4717 51.8037 55.1963 51.7393C54.9209 51.6689 54.5957 51.6338 54.2207 51.6338ZM64.0645 51.6338C63.6426 51.6338 63.2705 51.6836 62.9482 51.7832C62.6318 51.8828 62.3652 52.0234 62.1484 52.2051C61.9316 52.3867 61.7676 52.6064 61.6562 52.8643C61.5508 53.1162 61.498 53.3945 61.498 53.6992C61.498 53.916 61.5273 54.1299 61.5859 54.3408C61.6445 54.5518 61.7705 54.7686 61.9639 54.9912C62.1572 55.208 62.4355 55.4336 62.7988 55.668C63.168 55.9023 63.6631 56.1543 64.2842 56.4238C64.999 56.752 65.6025 57.0596 66.0947 57.3467C66.5928 57.6338 66.9971 57.9385 67.3076 58.2607C67.6182 58.583 67.8408 58.9463 67.9756 59.3506C68.1162 59.749 68.1865 60.2266 68.1865 60.7832C68.1865 61.2051 68.1016 61.627 67.9316 62.0488C67.7617 62.4707 67.5039 62.8486 67.1582 63.1826C66.8184 63.5166 66.3877 63.7891 65.8662 64C65.3506 64.2051 64.7441 64.3076 64.0469 64.3076C63.2734 64.3076 62.623 64.2344 62.0957 64.0879C61.5684 63.9473 61.1436 63.7627 60.8213 63.5342C60.5049 63.3057 60.2764 63.0479 60.1357 62.7607C59.9951 62.4678 59.9248 62.1748 59.9248 61.8818C59.9248 61.6885 59.9541 61.5098 60.0127 61.3457C60.0713 61.1758 60.1562 61.0293 60.2676 60.9062C60.3848 60.7773 60.5254 60.6777 60.6895 60.6074C60.8594 60.5312 61.0498 60.4932 61.2607 60.4932C61.4541 60.4932 61.6299 60.5283 61.7881 60.5986C61.9463 60.6631 62.0781 60.7539 62.1836 60.8711C62.2949 60.9824 62.3799 61.1172 62.4385 61.2754C62.5029 61.4277 62.5352 61.5947 62.5352 61.7764C62.5352 62.1924 62.415 62.5059 62.1748 62.7168C61.9346 62.9277 61.624 63.0332 61.2432 63.0332V63.0684C61.2842 63.1152 61.3633 63.1797 61.4805 63.2617C61.6035 63.3438 61.7705 63.4258 61.9814 63.5078C62.1982 63.5898 62.4619 63.6631 62.7725 63.7275C63.0889 63.7861 63.4609 63.8154 63.8887 63.8154C64.2402 63.8154 64.5889 63.7686 64.9346 63.6748C65.2861 63.5811 65.5967 63.4463 65.8662 63.2705C66.1416 63.0947 66.3643 62.8809 66.5342 62.6289C66.7041 62.377 66.7891 62.0928 66.7891 61.7764C66.7891 61.5068 66.7393 61.2549 66.6396 61.0205C66.54 60.7861 66.3525 60.5488 66.0771 60.3086C65.8018 60.0625 65.418 59.8018 64.9258 59.5264C64.4395 59.2451 63.8037 58.9287 63.0186 58.5771C62.4385 58.3311 61.9609 58.0615 61.5859 57.7686C61.2168 57.4697 60.9238 57.1562 60.707 56.8281C60.4961 56.4941 60.3496 56.1484 60.2676 55.791C60.1855 55.4277 60.1445 55.0557 60.1445 54.6748C60.1445 54.1943 60.2324 53.7402 60.4082 53.3125C60.584 52.8848 60.8389 52.5127 61.1729 52.1963C61.5068 51.874 61.917 51.6191 62.4033 51.4316C62.8955 51.2441 63.4551 51.1504 64.082 51.1504C64.6855 51.1504 65.21 51.2207 65.6553 51.3613C66.1064 51.502 66.4785 51.6895 66.7715 51.9238C67.0645 52.1523 67.2842 52.4219 67.4307 52.7324C67.5771 53.0371 67.6504 53.3564 67.6504 53.6904C67.6504 53.8662 67.6211 54.0361 67.5625 54.2002C67.5039 54.3584 67.4189 54.499 67.3076 54.6221C67.1963 54.7393 67.0586 54.8359 66.8945 54.9121C66.7305 54.9824 66.543 55.0176 66.332 55.0176C66.1387 55.0176 65.9629 54.9854 65.8047 54.9209C65.6465 54.8564 65.5088 54.7686 65.3916 54.6572C65.2803 54.5459 65.1924 54.4141 65.1279 54.2617C65.0693 54.1094 65.04 53.9424 65.04 53.7607C65.04 53.5557 65.0752 53.374 65.1455 53.2158C65.2158 53.0518 65.3096 52.917 65.4268 52.8115C65.5498 52.7002 65.6934 52.6182 65.8574 52.5654C66.0215 52.5068 66.1973 52.4775 66.3848 52.4775V52.4424C66.3496 52.4014 66.2793 52.3369 66.1738 52.249C66.0684 52.1553 65.9219 52.0645 65.7344 51.9766C65.5469 51.8828 65.3154 51.8037 65.04 51.7393C64.7646 51.6689 64.4395 51.6338 64.0645 51.6338Z" fill="white"/>
</svg>
