<svg width="108" height="116" viewBox="0 0 108 116" fill="none" xmlns="http://www.w3.org/2000/svg">
<path d="M53.8072 0L107.614 58L53.8072 116L0 58L53.8072 0Z" fill="black"/>
<path d="M33.707 64V63.6045L35.0605 63.5166V51.9414L33.707 51.8535V51.458H42.0127L42.1006 55.0352H41.6084C41.5674 54.543 41.4971 54.124 41.3975 53.7783C41.2979 53.4268 41.1455 53.1074 40.9404 52.8203C40.7412 52.5273 40.4658 52.3076 40.1143 52.1611C39.7627 52.0146 39.335 51.9414 38.8311 51.9414C38.1572 51.9414 37.6504 51.9707 37.3105 52.0293V57.4434C37.457 57.4492 37.542 57.4521 37.5654 57.4521C37.9814 57.4521 38.3096 57.4316 38.5498 57.3906C38.79 57.3438 39.0068 57.25 39.2002 57.1094C39.3936 56.9629 39.5283 56.749 39.6045 56.4678C39.6807 56.1865 39.7188 55.8115 39.7188 55.3428H40.2021V60.0625H39.7188C39.7188 59.2598 39.5869 58.7031 39.3232 58.3926C39.0596 58.082 38.6201 57.9268 38.0049 57.9268L37.3105 57.9355V63.5166L39.0156 63.6045V64H33.707ZM42.918 52.1523V51.792L44.7549 51.5986L45.9941 51.2734L46.1523 51.5283V63.5518L47.0576 63.6396V64H43.0938V63.6396L43.999 63.5518V52.1523H42.918ZM48.2178 62.0928C48.2178 61.8057 48.2617 61.5303 48.3496 61.2666C48.4434 60.9971 48.5928 60.7393 48.7979 60.4932C49.0029 60.2471 49.2549 60.0332 49.5537 59.8516C49.8525 59.6699 50.2217 59.5264 50.6611 59.4209C51.1064 59.3096 51.5986 59.2539 52.1377 59.2539C52.4248 59.2539 52.6973 59.2656 52.9551 59.2891V58.0762C52.9551 57.6895 52.9463 57.376 52.9287 57.1357C52.917 56.8955 52.8818 56.6494 52.8232 56.3975C52.7646 56.1396 52.6797 55.9434 52.5684 55.8086C52.4629 55.668 52.3105 55.5537 52.1113 55.4658C51.918 55.3721 51.6807 55.3252 51.3994 55.3252C50.5439 55.3252 49.9199 55.6621 49.5273 56.3359V56.3711C49.627 56.3535 49.7178 56.3447 49.7998 56.3447C50.1045 56.3447 50.3447 56.4385 50.5205 56.626C50.6963 56.8135 50.7842 57.083 50.7842 57.4346C50.7842 57.7393 50.6787 57.9971 50.4678 58.208C50.2568 58.4131 49.9932 58.5156 49.6768 58.5156C49.3311 58.5156 49.0586 58.3984 48.8594 58.1641C48.6602 57.9297 48.5605 57.6543 48.5605 57.3379C48.5605 56.6465 48.877 56.0693 49.5098 55.6064C50.1484 55.1436 50.8809 54.9121 51.707 54.9121C52.293 54.9121 52.791 54.9736 53.2012 55.0967C53.6172 55.2197 53.9482 55.3838 54.1943 55.5889C54.4404 55.7881 54.6309 56.0635 54.7656 56.415C54.9062 56.7607 54.9971 57.1152 55.0381 57.4785C55.085 57.8418 55.1084 58.2871 55.1084 58.8145V63.5518L56.0137 63.6396V64H53.2188L52.9727 62.6113H52.9551C52.668 63.168 52.3193 63.584 51.9092 63.8594C51.5049 64.1289 51.0127 64.2637 50.4326 64.2637C49.7178 64.2637 49.1699 64.0498 48.7891 63.6221C48.4082 63.1943 48.2178 62.6846 48.2178 62.0928ZM50.3447 61.9082C50.3447 62.377 50.4326 62.7578 50.6084 63.0508C50.7842 63.3379 51.042 63.4814 51.3818 63.4814C51.7803 63.4814 52.1406 63.2324 52.4629 62.7344C52.791 62.2363 52.9551 61.627 52.9551 60.9062V59.6934C52.7207 59.6641 52.5303 59.6494 52.3838 59.6494C52.0791 59.6494 51.8066 59.6904 51.5664 59.7725C51.332 59.8545 51.1445 59.9658 51.0039 60.1064C50.8633 60.2471 50.7461 60.3965 50.6523 60.5547C50.5586 60.707 50.4912 60.877 50.4502 61.0645C50.4092 61.252 50.3799 61.4072 50.3623 61.5303C50.3506 61.6533 50.3447 61.7793 50.3447 61.9082ZM60.1094 63.833C60.7773 63.833 61.2695 63.71 61.5859 63.4639C61.9082 63.2178 62.0693 62.9102 62.0693 62.541C62.0693 62.3477 62.0371 62.1777 61.9727 62.0312C61.9141 61.8789 61.8145 61.7354 61.6738 61.6006C61.5391 61.46 61.3574 61.3193 61.1289 61.1787C60.9062 61.0322 60.6279 60.8682 60.2939 60.6865C60.001 60.5166 59.6904 60.3408 59.3623 60.1592C59.0342 59.9717 58.7295 59.7578 58.4482 59.5176C58.1729 59.2715 57.9414 58.9873 57.7539 58.665C57.5723 58.3428 57.4814 57.9561 57.4814 57.5049C57.4814 57.1064 57.5576 56.7461 57.71 56.4238C57.8623 56.1016 58.0732 55.8291 58.3428 55.6064C58.6182 55.3779 58.9434 55.2021 59.3184 55.0791C59.6992 54.9561 60.1152 54.8945 60.5664 54.8945C60.9062 54.8945 61.2461 54.9385 61.5859 55.0264C61.9316 55.1084 62.2422 55.2344 62.5176 55.4043C62.793 55.5742 63.0156 55.7852 63.1855 56.0371C63.3555 56.2891 63.4404 56.582 63.4404 56.916C63.4404 57.0449 63.417 57.1709 63.3701 57.2939C63.3291 57.417 63.2646 57.5283 63.1768 57.6279C63.0889 57.7275 62.9805 57.8096 62.8516 57.874C62.7285 57.9326 62.585 57.9619 62.4209 57.9619C62.0811 57.9619 61.8262 57.8682 61.6562 57.6807C61.4863 57.4932 61.4014 57.2646 61.4014 56.9951C61.4014 56.8252 61.4248 56.6816 61.4717 56.5645C61.5186 56.4414 61.5801 56.3418 61.6562 56.2656C61.7383 56.1836 61.8291 56.125 61.9287 56.0898C62.0342 56.0488 62.1396 56.0283 62.2451 56.0283H62.3242V56.0107C62.2656 55.917 62.1807 55.8291 62.0693 55.7471C61.958 55.6592 61.8262 55.583 61.6738 55.5186C61.5215 55.4482 61.3516 55.3926 61.1641 55.3516C60.9766 55.3105 60.7773 55.29 60.5664 55.29C60.2559 55.29 59.9922 55.3311 59.7754 55.4131C59.5586 55.4951 59.3799 55.6006 59.2393 55.7295C59.1045 55.8525 59.0049 55.9902 58.9404 56.1426C58.876 56.2949 58.8438 56.4414 58.8438 56.582C58.8438 56.752 58.8701 56.8984 58.9229 57.0215C58.9756 57.1445 59.0664 57.2705 59.1953 57.3994C59.3301 57.5225 59.5117 57.6572 59.7402 57.8037C59.9746 57.9502 60.2676 58.126 60.6191 58.3311C60.959 58.5068 61.3164 58.6943 61.6914 58.8936C62.0723 59.0928 62.4209 59.3242 62.7373 59.5879C63.0537 59.8457 63.3145 60.1445 63.5195 60.4844C63.7305 60.8184 63.8359 61.2109 63.8359 61.6621C63.8359 62.043 63.7627 62.3916 63.6162 62.708C63.4756 63.0244 63.2529 63.2969 62.9482 63.5254C62.6494 63.7539 62.2656 63.9297 61.7969 64.0527C61.334 64.1816 60.7832 64.2461 60.1445 64.2461C59.8398 64.2461 59.5146 64.208 59.1689 64.1318C58.8232 64.0557 58.5039 63.9355 58.2109 63.7715C57.918 63.6016 57.6748 63.3848 57.4814 63.1211C57.2881 62.8516 57.1914 62.5234 57.1914 62.1367C57.1914 61.9727 57.2178 61.8145 57.2705 61.6621C57.3232 61.5098 57.3965 61.375 57.4902 61.2578C57.5898 61.1348 57.71 61.0381 57.8506 60.9678C57.9912 60.8975 58.1523 60.8623 58.334 60.8623C58.4922 60.8623 58.6328 60.8916 58.7559 60.9502C58.8789 61.0029 58.9814 61.0762 59.0635 61.1699C59.1514 61.2578 59.2188 61.3633 59.2656 61.4863C59.3125 61.6094 59.3389 61.7412 59.3447 61.8818C59.3447 62.0459 59.3154 62.1924 59.2568 62.3213C59.1982 62.4443 59.1221 62.5469 59.0283 62.6289C58.9346 62.7109 58.8262 62.7754 58.7031 62.8223C58.5859 62.8633 58.4688 62.8838 58.3516 62.8838C58.3281 62.8838 58.3018 62.8838 58.2725 62.8838C58.249 62.8838 58.2256 62.8809 58.2021 62.875V62.8926C58.2549 63.0098 58.334 63.124 58.4395 63.2354C58.5449 63.3467 58.6768 63.4463 58.835 63.5342C58.999 63.6221 59.1865 63.6953 59.3975 63.7539C59.6143 63.8066 59.8516 63.833 60.1094 63.833ZM64.8027 51.792L66.6396 51.5986L67.8789 51.2734L68.0371 51.5283V63.5518L68.9424 63.6396V64H64.9785V63.6396L65.8838 63.5518V52.1348L64.8203 52.1523L64.8027 51.792ZM68.0371 59.4121V59.1924L71.4561 55.6328L70.4717 55.5361V55.1758H73.0996V55.5361L72.1064 55.6328L69.584 58.3135L73.1172 63.5518L74.0312 63.6396V64H70.0059V63.6396L70.7178 63.5518L68.0371 59.4121Z" fill="white"/>
</svg>
