<svg width="108" height="116" viewBox="0 0 108 116" fill="none" xmlns="http://www.w3.org/2000/svg">
<path d="M53.8072 0L107.614 58L53.8072 116L0 58L53.8072 0Z" fill="black"/>
<path d="M29.1016 64V63.6045L30.4551 63.5166V51.9414L29.1016 51.8535V51.458H34.0586V51.8535L32.7051 51.9414V57.3027L37.4336 57.2324V51.9414L36.0801 51.8535V51.458H41.0371V51.8535L39.6836 51.9414V63.5166L41.0371 63.6045V64H36.0801V63.6045L37.4336 63.5166V57.8301H32.7051V63.5166L34.0586 63.6045V64H29.1016ZM42.2061 55.7646L42.2939 51.458H51.8916L51.9795 55.7559H51.4961C51.4141 55.3047 51.3408 54.9414 51.2764 54.666C51.2178 54.3906 51.1445 54.1006 51.0566 53.7959C50.9688 53.4912 50.8779 53.2539 50.7842 53.084C50.6904 52.9141 50.5762 52.7441 50.4414 52.5742C50.3066 52.4043 50.1514 52.2812 49.9756 52.2051C49.8057 52.123 49.6064 52.0586 49.3779 52.0117C49.1494 51.959 48.8857 51.9326 48.5869 51.9326C48.5635 51.9326 48.5137 51.9355 48.4375 51.9414C48.3672 51.9414 48.3027 51.9414 48.2441 51.9414V63.5166L49.6064 63.6045V64H44.6494V63.6045L45.9941 63.5166L45.9414 51.9502C45.8828 51.9502 45.8154 51.9502 45.7393 51.9502C45.6689 51.9443 45.6221 51.9414 45.5986 51.9414C45.335 51.9414 45.1006 51.9561 44.8955 51.9854C44.6904 52.0146 44.5029 52.0703 44.333 52.1523C44.1689 52.2344 44.0254 52.3223 43.9023 52.416C43.7793 52.5098 43.665 52.6445 43.5596 52.8203C43.4541 52.9961 43.3633 53.166 43.2871 53.3301C43.2168 53.4941 43.1406 53.7197 43.0586 54.0068C42.9824 54.2881 42.8594 54.874 42.6895 55.7646H42.2061ZM53.1484 64V63.6045L54.502 63.5166V51.9414L53.1484 51.8535V51.458H56.9102L60.5752 60.8096H60.5928L64.0381 51.458H67.6416V51.8535L66.2881 51.9414V63.5166L67.6416 63.6045V64H62.6846V63.6045L64.0381 63.5166L64.0557 52.7676H64.0381L59.8633 64.1758H59.5381L54.8975 52.3545H54.8799L55.0117 63.5166L56.3389 63.6045V64H53.1484ZM68.9336 64V63.6045L70.2871 63.5166V51.9414L68.9336 51.8535V51.458H73.8906V51.8535L72.5371 51.9414V63.4287C73.4922 63.4932 74.1455 63.5254 74.4971 63.5254C74.8193 63.5254 75.1006 63.5166 75.3408 63.499C75.5869 63.4814 75.8096 63.4434 76.0088 63.3848C76.2139 63.3262 76.3838 63.2646 76.5186 63.2002C76.6592 63.1357 76.791 63.0361 76.9141 62.9014C77.0371 62.7607 77.1367 62.626 77.2129 62.4971C77.2891 62.3623 77.3887 62.1045 77.5117 61.7236C77.6348 61.3369 77.7432 60.9004 77.8369 60.4141H78.1357V64H68.9336Z" fill="white"/>
</svg>
