<svg width="108" height="116" viewBox="0 0 108 116" fill="none" xmlns="http://www.w3.org/2000/svg">
<path d="M53.8072 0L107.614 58L53.8072 116L0 58L53.8072 0Z" fill="black"/>
<path d="M12.9736 64.9932C12.9736 64.6416 13.0908 64.3369 13.3252 64.0791C13.5596 63.8213 13.8613 63.6924 14.2305 63.6924C14.623 63.6924 14.9277 63.8096 15.1445 64.0439C15.3613 64.2783 15.4697 64.5625 15.4697 64.8965C15.4697 65.0898 15.4082 65.2979 15.2852 65.5205C15.168 65.7432 15.0068 65.9072 14.8018 66.0127L14.8281 66.0479C14.9043 66.1592 15.0771 66.2148 15.3467 66.2148C15.4404 66.2148 15.5195 66.209 15.584 66.1973C15.6543 66.1855 15.7422 66.1592 15.8477 66.1182C15.9531 66.0771 16.041 66.0068 16.1113 65.9072C16.1875 65.8076 16.2607 65.6758 16.3311 65.5117C16.4014 65.3535 16.4541 65.1396 16.4893 64.8701C16.5303 64.6006 16.5508 64.2871 16.5508 63.9297V51.9414L14.8457 51.8535V51.458H20.1543V51.8535L18.8008 51.9414V62.0576C18.8008 62.8428 18.71 63.5283 18.5283 64.1143C18.3525 64.7061 18.1357 65.1602 17.8779 65.4766C17.6201 65.793 17.3154 66.0479 16.9639 66.2412C16.6182 66.4404 16.3076 66.5664 16.0322 66.6191C15.7627 66.6719 15.4873 66.6982 15.2061 66.6982C14.5791 66.6982 14.0488 66.5488 13.6152 66.25C13.1875 65.9512 12.9736 65.5322 12.9736 64.9932ZM21.0684 62.0928C21.0684 61.8057 21.1123 61.5303 21.2002 61.2666C21.2939 60.9971 21.4434 60.7393 21.6484 60.4932C21.8535 60.2471 22.1055 60.0332 22.4043 59.8516C22.7031 59.6699 23.0723 59.5264 23.5117 59.4209C23.957 59.3096 24.4492 59.2539 24.9883 59.2539C25.2754 59.2539 25.5479 59.2656 25.8057 59.2891V58.0762C25.8057 57.6895 25.7969 57.376 25.7793 57.1357C25.7676 56.8955 25.7324 56.6494 25.6738 56.3975C25.6152 56.1396 25.5303 55.9434 25.4189 55.8086C25.3135 55.668 25.1611 55.5537 24.9619 55.4658C24.7686 55.3721 24.5312 55.3252 24.25 55.3252C23.3945 55.3252 22.7705 55.6621 22.3779 56.3359V56.3711C22.4775 56.3535 22.5684 56.3447 22.6504 56.3447C22.9551 56.3447 23.1953 56.4385 23.3711 56.626C23.5469 56.8135 23.6348 57.083 23.6348 57.4346C23.6348 57.7393 23.5293 57.9971 23.3184 58.208C23.1074 58.4131 22.8438 58.5156 22.5273 58.5156C22.1816 58.5156 21.9092 58.3984 21.71 58.1641C21.5107 57.9297 21.4111 57.6543 21.4111 57.3379C21.4111 56.6465 21.7275 56.0693 22.3604 55.6064C22.999 55.1436 23.7314 54.9121 24.5576 54.9121C25.1436 54.9121 25.6416 54.9736 26.0518 55.0967C26.4678 55.2197 26.7988 55.3838 27.0449 55.5889C27.291 55.7881 27.4814 56.0635 27.6162 56.415C27.7568 56.7607 27.8477 57.1152 27.8887 57.4785C27.9355 57.8418 27.959 58.2871 27.959 58.8145V63.5518L28.8643 63.6396V64H26.0693L25.8232 62.6113H25.8057C25.5186 63.168 25.1699 63.584 24.7598 63.8594C24.3555 64.1289 23.8633 64.2637 23.2832 64.2637C22.5684 64.2637 22.0205 64.0498 21.6396 63.6221C21.2588 63.1943 21.0684 62.6846 21.0684 62.0928ZM23.1953 61.9082C23.1953 62.377 23.2832 62.7578 23.459 63.0508C23.6348 63.3379 23.8926 63.4814 24.2324 63.4814C24.6309 63.4814 24.9912 63.2324 25.3135 62.7344C25.6416 62.2363 25.8057 61.627 25.8057 60.9062V59.6934C25.5713 59.6641 25.3809 59.6494 25.2344 59.6494C24.9297 59.6494 24.6572 59.6904 24.417 59.7725C24.1826 59.8545 23.9951 59.9658 23.8545 60.1064C23.7139 60.2471 23.5967 60.3965 23.5029 60.5547C23.4092 60.707 23.3418 60.877 23.3008 61.0645C23.2598 61.252 23.2305 61.4072 23.2129 61.5303C23.2012 61.6533 23.1953 61.7793 23.1953 61.9082ZM28.873 55.5361V55.1758H33.0303V55.5361L32.0811 55.6328L34.1553 61.1699H34.1904L36.0889 55.6328L35.1221 55.5361V55.1758H37.5303V55.5361L36.6162 55.6328L33.6719 64.0879H33.2676L29.7432 55.6328L28.873 55.5361ZM37.9434 62.0928C37.9434 61.8057 37.9873 61.5303 38.0752 61.2666C38.1689 60.9971 38.3184 60.7393 38.5234 60.4932C38.7285 60.2471 38.9805 60.0332 39.2793 59.8516C39.5781 59.6699 39.9473 59.5264 40.3867 59.4209C40.832 59.3096 41.3242 59.2539 41.8633 59.2539C42.1504 59.2539 42.4229 59.2656 42.6807 59.2891V58.0762C42.6807 57.6895 42.6719 57.376 42.6543 57.1357C42.6426 56.8955 42.6074 56.6494 42.5488 56.3975C42.4902 56.1396 42.4053 55.9434 42.2939 55.8086C42.1885 55.668 42.0361 55.5537 41.8369 55.4658C41.6436 55.3721 41.4062 55.3252 41.125 55.3252C40.2695 55.3252 39.6455 55.6621 39.2529 56.3359V56.3711C39.3525 56.3535 39.4434 56.3447 39.5254 56.3447C39.8301 56.3447 40.0703 56.4385 40.2461 56.626C40.4219 56.8135 40.5098 57.083 40.5098 57.4346C40.5098 57.7393 40.4043 57.9971 40.1934 58.208C39.9824 58.4131 39.7188 58.5156 39.4023 58.5156C39.0566 58.5156 38.7842 58.3984 38.585 58.1641C38.3857 57.9297 38.2861 57.6543 38.2861 57.3379C38.2861 56.6465 38.6025 56.0693 39.2354 55.6064C39.874 55.1436 40.6064 54.9121 41.4326 54.9121C42.0186 54.9121 42.5166 54.9736 42.9268 55.0967C43.3428 55.2197 43.6738 55.3838 43.9199 55.5889C44.166 55.7881 44.3564 56.0635 44.4912 56.415C44.6318 56.7607 44.7227 57.1152 44.7637 57.4785C44.8105 57.8418 44.834 58.2871 44.834 58.8145V63.5518L45.7393 63.6396V64H42.9443L42.6982 62.6113H42.6807C42.3936 63.168 42.0449 63.584 41.6348 63.8594C41.2305 64.1289 40.7383 64.2637 40.1582 64.2637C39.4434 64.2637 38.8955 64.0498 38.5146 63.6221C38.1338 63.1943 37.9434 62.6846 37.9434 62.0928ZM40.0703 61.9082C40.0703 62.377 40.1582 62.7578 40.334 63.0508C40.5098 63.3379 40.7676 63.4814 41.1074 63.4814C41.5059 63.4814 41.8662 63.2324 42.1885 62.7344C42.5166 62.2363 42.6807 61.627 42.6807 60.9062V59.6934C42.4463 59.6641 42.2559 59.6494 42.1094 59.6494C41.8047 59.6494 41.5322 59.6904 41.292 59.7725C41.0576 59.8545 40.8701 59.9658 40.7295 60.1064C40.5889 60.2471 40.4717 60.3965 40.3779 60.5547C40.2842 60.707 40.2168 60.877 40.1758 61.0645C40.1348 61.252 40.1055 61.4072 40.0879 61.5303C40.0762 61.6533 40.0703 61.7793 40.0703 61.9082ZM51.2061 51.6338C50.7842 51.6338 50.4121 51.6836 50.0898 51.7832C49.7734 51.8828 49.5068 52.0234 49.29 52.2051C49.0732 52.3867 48.9092 52.6064 48.7979 52.8643C48.6924 53.1162 48.6396 53.3945 48.6396 53.6992C48.6396 53.916 48.6689 54.1299 48.7275 54.3408C48.7861 54.5518 48.9121 54.7686 49.1055 54.9912C49.2988 55.208 49.5771 55.4336 49.9404 55.668C50.3096 55.9023 50.8047 56.1543 51.4258 56.4238C52.1406 56.752 52.7441 57.0596 53.2363 57.3467C53.7344 57.6338 54.1387 57.9385 54.4492 58.2607C54.7598 58.583 54.9824 58.9463 55.1172 59.3506C55.2578 59.749 55.3281 60.2266 55.3281 60.7832C55.3281 61.2051 55.2432 61.627 55.0732 62.0488C54.9033 62.4707 54.6455 62.8486 54.2998 63.1826C53.96 63.5166 53.5293 63.7891 53.0078 64C52.4922 64.2051 51.8857 64.3076 51.1885 64.3076C50.415 64.3076 49.7646 64.2344 49.2373 64.0879C48.71 63.9473 48.2852 63.7627 47.9629 63.5342C47.6465 63.3057 47.418 63.0479 47.2773 62.7607C47.1367 62.4678 47.0664 62.1748 47.0664 61.8818C47.0664 61.6885 47.0957 61.5098 47.1543 61.3457C47.2129 61.1758 47.2979 61.0293 47.4092 60.9062C47.5264 60.7773 47.667 60.6777 47.8311 60.6074C48.001 60.5312 48.1914 60.4932 48.4023 60.4932C48.5957 60.4932 48.7715 60.5283 48.9297 60.5986C49.0879 60.6631 49.2197 60.7539 49.3252 60.8711C49.4365 60.9824 49.5215 61.1172 49.5801 61.2754C49.6445 61.4277 49.6768 61.5947 49.6768 61.7764C49.6768 62.1924 49.5566 62.5059 49.3164 62.7168C49.0762 62.9277 48.7656 63.0332 48.3848 63.0332V63.0684C48.4258 63.1152 48.5049 63.1797 48.6221 63.2617C48.7451 63.3438 48.9121 63.4258 49.123 63.5078C49.3398 63.5898 49.6035 63.6631 49.9141 63.7275C50.2305 63.7861 50.6025 63.8154 51.0303 63.8154C51.3818 63.8154 51.7305 63.7686 52.0762 63.6748C52.4277 63.5811 52.7383 63.4463 53.0078 63.2705C53.2832 63.0947 53.5059 62.8809 53.6758 62.6289C53.8457 62.377 53.9307 62.0928 53.9307 61.7764C53.9307 61.5068 53.8809 61.2549 53.7812 61.0205C53.6816 60.7861 53.4941 60.5488 53.2188 60.3086C52.9434 60.0625 52.5596 59.8018 52.0674 59.5264C51.5811 59.2451 50.9453 58.9287 50.1602 58.5771C49.5801 58.3311 49.1025 58.0615 48.7275 57.7686C48.3584 57.4697 48.0654 57.1562 47.8486 56.8281C47.6377 56.4941 47.4912 56.1484 47.4092 55.791C47.3271 55.4277 47.2861 55.0557 47.2861 54.6748C47.2861 54.1943 47.374 53.7402 47.5498 53.3125C47.7256 52.8848 47.9805 52.5127 48.3145 52.1963C48.6484 51.874 49.0586 51.6191 49.5449 51.4316C50.0371 51.2441 50.5967 51.1504 51.2236 51.1504C51.8271 51.1504 52.3516 51.2207 52.7969 51.3613C53.248 51.502 53.6201 51.6895 53.9131 51.9238C54.2061 52.1523 54.4258 52.4219 54.5723 52.7324C54.7188 53.0371 54.792 53.3564 54.792 53.6904C54.792 53.8662 54.7627 54.0361 54.7041 54.2002C54.6455 54.3584 54.5605 54.499 54.4492 54.6221C54.3379 54.7393 54.2002 54.8359 54.0361 54.9121C53.8721 54.9824 53.6846 55.0176 53.4736 55.0176C53.2803 55.0176 53.1045 54.9854 52.9463 54.9209C52.7881 54.8564 52.6504 54.7686 52.5332 54.6572C52.4219 54.5459 52.334 54.4141 52.2695 54.2617C52.2109 54.1094 52.1816 53.9424 52.1816 53.7607C52.1816 53.5557 52.2168 53.374 52.2871 53.2158C52.3574 53.0518 52.4512 52.917 52.5684 52.8115C52.6914 52.7002 52.835 52.6182 52.999 52.5654C53.1631 52.5068 53.3389 52.4775 53.5264 52.4775V52.4424C53.4912 52.4014 53.4209 52.3369 53.3154 52.249C53.21 52.1553 53.0635 52.0645 52.876 51.9766C52.6885 51.8828 52.457 51.8037 52.1816 51.7393C51.9062 51.6689 51.5811 51.6338 51.2061 51.6338ZM56.708 59.6406C56.708 59.207 56.7578 58.7734 56.8574 58.3398C56.957 57.9062 57.1152 57.4844 57.332 57.0742C57.5547 56.6582 57.8213 56.292 58.1318 55.9756C58.4482 55.6533 58.8379 55.3955 59.3008 55.2021C59.7637 55.0088 60.2676 54.9121 60.8125 54.9121C61.627 54.9121 62.3008 55.1406 62.834 55.5977C63.373 56.0547 63.6426 56.5996 63.6426 57.2324C63.6426 57.5488 63.543 57.8184 63.3438 58.041C63.1445 58.2578 62.8721 58.3662 62.5264 58.3662C62.2041 58.3662 61.9404 58.2637 61.7354 58.0586C61.5303 57.8535 61.4277 57.5957 61.4277 57.2852C61.4277 56.9922 61.5215 56.7402 61.709 56.5293C61.9023 56.3184 62.1484 56.2129 62.4473 56.2129C62.4883 56.2129 62.5615 56.2188 62.667 56.2305V56.1865C62.5967 56.0693 62.5117 55.9609 62.4121 55.8613C62.3184 55.7559 62.1543 55.6445 61.9199 55.5273C61.6855 55.4102 61.4248 55.3516 61.1377 55.3516C60.6221 55.3516 60.1973 55.5449 59.8633 55.9316C59.5293 56.3184 59.2949 56.8193 59.1602 57.4346C59.0254 58.0439 58.958 58.7676 58.958 59.6055C58.958 62.3066 59.6787 63.6572 61.1201 63.6572C61.3076 63.6572 61.4805 63.6426 61.6387 63.6133C61.8027 63.5781 61.9932 63.5137 62.21 63.4199C62.4326 63.3262 62.6523 63.168 62.8691 62.9453C63.0859 62.7227 63.2939 62.4414 63.4932 62.1016L63.8359 62.3037C63.1152 63.6104 62.084 64.2637 60.7422 64.2637C58.0527 64.2637 56.708 62.7227 56.708 59.6406ZM64.8115 55.8789V55.5186L66.6484 55.3252L67.8877 55L68.0107 55.2549V56.7666H68.0459C68.1631 56.5322 68.3066 56.3037 68.4766 56.0811C68.6465 55.8584 68.8311 55.6621 69.0303 55.4922C69.2354 55.3164 69.4521 55.1758 69.6807 55.0703C69.9092 54.9648 70.1406 54.9121 70.375 54.9121C70.832 54.9121 71.1836 55.0352 71.4297 55.2812C71.6816 55.5215 71.8076 55.8438 71.8076 56.248C71.8076 56.418 71.7812 56.5762 71.7285 56.7227C71.6758 56.8633 71.5996 56.9863 71.5 57.0918C71.4062 57.1973 71.2891 57.2822 71.1484 57.3467C71.0137 57.4053 70.8643 57.4346 70.7002 57.4346C70.5244 57.4346 70.3662 57.4053 70.2256 57.3467C70.085 57.2881 69.9648 57.209 69.8652 57.1094C69.7715 57.0098 69.6982 56.8955 69.6455 56.7666C69.5928 56.6318 69.5664 56.4883 69.5664 56.3359C69.5664 56.0254 69.6309 55.7969 69.7598 55.6504V55.5977C69.5488 55.6445 69.3408 55.7559 69.1357 55.9316C68.9365 56.1074 68.7549 56.3477 68.5908 56.6523C68.4268 56.9512 68.2949 57.3145 68.1953 57.7422C68.0957 58.1641 68.0459 58.6416 68.0459 59.1748V63.5518L68.9512 63.6396V64H64.9873V63.6396L65.8926 63.5518V55.8789H64.8115ZM72.4404 55.8789V55.5186L74.2773 55.3252L75.5166 55L75.6748 55.2549V63.5518L76.5801 63.6396V64H72.6162V63.6396L73.5215 63.5518V55.8789H72.4404ZM73.3984 51.8799C73.3984 51.7158 73.4277 51.5635 73.4863 51.4229C73.5508 51.2822 73.6357 51.1592 73.7412 51.0537C73.8467 50.9482 73.9697 50.8662 74.1104 50.8076C74.251 50.749 74.4004 50.7197 74.5586 50.7197C74.7168 50.7197 74.8662 50.752 75.0068 50.8164C75.1475 50.875 75.2705 50.957 75.376 51.0625C75.4873 51.168 75.5723 51.291 75.6309 51.4316C75.6953 51.5723 75.7275 51.7217 75.7275 51.8799C75.7275 52.0381 75.6953 52.1875 75.6309 52.3281C75.5723 52.4688 75.4902 52.5947 75.3848 52.7061C75.2793 52.8115 75.1562 52.8965 75.0156 52.9609C74.875 53.0195 74.7227 53.0488 74.5586 53.0488C74.3945 53.0488 74.2422 53.0195 74.1016 52.9609C73.9609 52.8965 73.8379 52.8115 73.7324 52.7061C73.627 52.6006 73.5449 52.4775 73.4863 52.3369C73.4277 52.1963 73.3984 52.0439 73.3984 51.8799ZM77.4941 55.8789V55.5186L79.3311 55.3252L80.5703 55L80.6934 55.2549V56.3975H80.7285C81.0625 55.8291 81.4141 55.4395 81.7832 55.2285C82.1523 55.0176 82.5947 54.9121 83.1104 54.9121C83.2451 54.9121 83.3887 54.9268 83.541 54.9561C83.6934 54.9854 83.8691 55.0439 84.0684 55.1318C84.2734 55.2139 84.4697 55.3223 84.6572 55.457C84.8447 55.5918 85.0293 55.7793 85.2109 56.0195C85.3984 56.2598 85.5596 56.5352 85.6943 56.8457C85.8291 57.1504 85.9375 57.5312 86.0195 57.9883C86.1074 58.4453 86.1514 58.9492 86.1514 59.5C86.1514 60.1621 86.0693 60.7773 85.9053 61.3457C85.7412 61.9082 85.501 62.4092 85.1846 62.8486C84.8682 63.2881 84.4521 63.6338 83.9365 63.8857C83.4209 64.1377 82.832 64.2637 82.1699 64.2637C81.5898 64.2637 81.1094 64.1143 80.7285 63.8154V67.7266L81.6338 67.8145V68.1748H77.6699V67.8145L78.5752 67.7266V55.8789H77.4941ZM80.7285 63.3496C81.0625 63.6484 81.4229 63.7979 81.8096 63.7979C82.0908 63.7979 82.3398 63.7422 82.5566 63.6309C82.7793 63.5195 82.9609 63.3818 83.1016 63.2178C83.248 63.0537 83.374 62.8398 83.4795 62.5762C83.585 62.3066 83.6641 62.0547 83.7168 61.8203C83.7695 61.5801 83.8105 61.2959 83.8398 60.9678C83.8691 60.6396 83.8867 60.3672 83.8926 60.1504C83.8984 59.9336 83.9014 59.6758 83.9014 59.377C83.9014 58.4277 83.834 57.6689 83.6992 57.1006C83.5645 56.5264 83.3887 56.1367 83.1719 55.9316C82.9551 55.7207 82.6826 55.6152 82.3545 55.6152C81.8975 55.6152 81.5107 55.8555 81.1943 56.3359C80.8838 56.8164 80.7285 57.3555 80.7285 57.9531V63.3496ZM86.9248 55.5537V55.1758H88.4189V53.2334L89.1748 53.1543L90.4141 52.8291L90.5811 53.084V55.1758H92.5059V55.5537L90.5811 55.6328V61.8203C90.5811 62.1777 90.6221 62.4766 90.7041 62.7168C90.792 62.9512 90.9033 63.1123 91.0381 63.2002C91.1787 63.2881 91.29 63.3438 91.3721 63.3672C91.46 63.3906 91.5508 63.4023 91.6445 63.4023C91.8262 63.4023 91.999 63.3643 92.1631 63.2881C92.333 63.2061 92.4854 63.0889 92.6201 62.9365C92.7607 62.7842 92.875 62.6465 92.9629 62.5234C93.0508 62.3945 93.1504 62.2393 93.2617 62.0576L93.6396 62.2861C93.3291 62.8018 93.0596 63.1768 92.8311 63.4111C92.2744 63.9795 91.6328 64.2637 90.9062 64.2637C90.6309 64.2637 90.3848 64.2432 90.168 64.2021C89.957 64.167 89.7373 64.0879 89.5088 63.9648C89.2803 63.8418 89.0898 63.6777 88.9375 63.4727C88.7852 63.2617 88.6592 62.9746 88.5596 62.6113C88.4658 62.2422 88.4189 61.8115 88.4189 61.3193V55.6328L86.9248 55.5537Z" fill="white"/>
</svg>
