<svg width="108" height="116" viewBox="0 0 108 116" fill="none" xmlns="http://www.w3.org/2000/svg">
<path d="M53.8072 0L107.614 58L53.8072 116L0 58L53.8072 0Z" fill="black"/>
<path d="M26.3945 64V63.6045L27.748 63.5166V51.9414L26.3945 51.8535V51.458H31.167C31.8115 51.458 32.4062 51.5283 32.9512 51.6689C33.502 51.8037 33.9971 52.0117 34.4365 52.293C34.876 52.5684 35.2188 52.9404 35.4648 53.4092C35.7168 53.8721 35.8428 54.4082 35.8428 55.0176C35.8428 55.5801 35.7461 56.0869 35.5527 56.5381C35.3652 56.9893 35.1104 57.3672 34.7881 57.6719C34.4658 57.9766 34.0762 58.2314 33.6191 58.4365C33.168 58.6357 32.6875 58.7822 32.1777 58.876C31.6738 58.9639 31.1377 59.0078 30.5693 59.0078C30.4463 59.0078 30.2559 59.002 29.998 58.9902V63.5166L31.3516 63.6045V64H26.3945ZM29.998 58.4893C30.2031 58.5068 30.4111 58.5156 30.6221 58.5156C32.5439 58.5156 33.5049 57.3438 33.5049 55C33.5049 54.4316 33.4404 53.9482 33.3115 53.5498C33.1826 53.1455 32.9951 52.835 32.749 52.6182C32.5088 52.3955 32.2393 52.2373 31.9404 52.1436C31.6475 52.0439 31.3105 51.9941 30.9297 51.9941C30.6426 51.9941 30.332 52.0176 29.998 52.0645V58.4893ZM37.0732 67.0498C37.0732 66.7041 37.1758 66.4141 37.3809 66.1797C37.5918 65.9453 37.8555 65.8281 38.1719 65.8281C38.5117 65.8281 38.7666 65.9336 38.9365 66.1445C39.1123 66.3555 39.2002 66.6162 39.2002 66.9268C39.2002 67.0439 39.1621 67.1846 39.0859 67.3486C39.0156 67.5127 38.9219 67.6357 38.8047 67.7178V67.7529C39.0098 67.7471 39.2031 67.6738 39.3848 67.5332C39.5664 67.3984 39.7305 67.2021 39.877 66.9443C40.0234 66.6865 40.1348 66.4697 40.2109 66.2939C40.2871 66.1182 40.375 65.8984 40.4746 65.6348L40.8701 64.2988L37.1348 55.6328L36.2646 55.5361V55.1758H40.4219V55.5361L39.4727 55.6328L41.7578 61.3633L43.4805 55.6328L42.5137 55.5361V55.1758H44.9043V55.5361L43.9902 55.6328L41.0723 65.5117C40.8672 66.1094 40.6562 66.6074 40.4395 67.0059C40.2227 67.4043 40.0029 67.6943 39.7803 67.876C39.5635 68.0635 39.3613 68.1895 39.1738 68.2539C38.9863 68.3184 38.7783 68.3506 38.5498 68.3506C38.1104 68.3506 37.7529 68.2275 37.4775 67.9814C37.208 67.7354 37.0732 67.4248 37.0732 67.0498ZM44.9043 55.5537V55.1758H46.3984V53.2334L47.1543 53.1543L48.3936 52.8291L48.5605 53.084V55.1758H50.4854V55.5537L48.5605 55.6328V61.8203C48.5605 62.1777 48.6016 62.4766 48.6836 62.7168C48.7715 62.9512 48.8828 63.1123 49.0176 63.2002C49.1582 63.2881 49.2695 63.3438 49.3516 63.3672C49.4395 63.3906 49.5303 63.4023 49.624 63.4023C49.8057 63.4023 49.9785 63.3643 50.1426 63.2881C50.3125 63.2061 50.4648 63.0889 50.5996 62.9365C50.7402 62.7842 50.8545 62.6465 50.9424 62.5234C51.0303 62.3945 51.1299 62.2393 51.2412 62.0576L51.6191 62.2861C51.3086 62.8018 51.0391 63.1768 50.8105 63.4111C50.2539 63.9795 49.6123 64.2637 48.8857 64.2637C48.6104 64.2637 48.3643 64.2432 48.1475 64.2021C47.9365 64.167 47.7168 64.0879 47.4883 63.9648C47.2598 63.8418 47.0693 63.6777 46.917 63.4727C46.7646 63.2617 46.6387 62.9746 46.5391 62.6113C46.4453 62.2422 46.3984 61.8115 46.3984 61.3193V55.6328L44.9043 55.5537ZM51.8477 52.1523V51.792L53.6846 51.5986L54.9238 51.2734L55.0469 51.5283V56.4414H55.082C55.7793 55.4219 56.6816 54.9121 57.7891 54.9121C58 54.9121 58.2021 54.9297 58.3955 54.9648C58.5889 55 58.8027 55.0791 59.0371 55.2021C59.2715 55.3252 59.4736 55.4863 59.6436 55.6855C59.8135 55.8848 59.957 56.1689 60.0742 56.5381C60.1914 56.9072 60.25 57.3379 60.25 57.8301V63.5518L61.1465 63.6396V64H57.1914V63.6396L58.0879 63.5518V57.5752C58.0879 56.3271 57.6865 55.7031 56.8838 55.7031C56.3564 55.7031 55.9229 55.9434 55.583 56.4238C55.249 56.9043 55.082 57.5342 55.082 58.3135V63.5518L55.9873 63.6396V64H52.0234V63.6396L52.9287 63.5518V52.1523H51.8477ZM62.2979 59.6406C62.2979 58.7559 62.4678 57.9531 62.8076 57.2324C63.1533 56.5117 63.6338 55.9463 64.249 55.5361C64.8701 55.1201 65.5703 54.9121 66.3496 54.9121C66.9941 54.9121 67.5742 55.0469 68.0898 55.3164C68.6113 55.5801 69.0273 55.9346 69.3379 56.3799C69.6543 56.8252 69.8945 57.3232 70.0586 57.874C70.2285 58.4189 70.3135 58.9902 70.3135 59.5879C70.3135 60.4492 70.1494 61.2344 69.8213 61.9434C69.4932 62.6523 69.0215 63.2178 68.4062 63.6396C67.7969 64.0557 67.1055 64.2637 66.332 64.2637C65.6465 64.2637 65.04 64.1436 64.5127 63.9033C63.9912 63.6572 63.5693 63.3203 63.2471 62.8926C62.9307 62.459 62.6934 61.9697 62.5352 61.4248C62.377 60.8799 62.2979 60.2852 62.2979 59.6406ZM64.5479 59.5352C64.5479 60.1855 64.5801 60.7686 64.6445 61.2842C64.709 61.7939 64.8086 62.248 64.9434 62.6465C65.0781 63.0391 65.2598 63.3408 65.4883 63.5518C65.7168 63.7627 65.9863 63.8682 66.2969 63.8682C67.4746 63.8682 68.0635 62.459 68.0635 59.6406C68.0635 58.9316 68.0342 58.3223 67.9756 57.8125C67.9229 57.3027 67.8291 56.8545 67.6943 56.4678C67.5654 56.0752 67.3838 55.7852 67.1494 55.5977C66.915 55.4043 66.6309 55.3076 66.2969 55.3076C65.9863 55.3076 65.7168 55.4131 65.4883 55.624C65.2598 55.835 65.0781 56.1338 64.9434 56.5205C64.8086 56.9072 64.709 57.3496 64.6445 57.8477C64.5801 58.3457 64.5479 58.9082 64.5479 59.5352ZM71.5088 55.5186L73.3457 55.3252L74.585 55L74.7432 55.2549L74.708 56.4414H74.7432C75.4404 55.4219 76.3428 54.9121 77.4502 54.9121C77.6611 54.9121 77.8633 54.9297 78.0566 54.9648C78.25 55 78.4639 55.0791 78.6982 55.2021C78.9326 55.3252 79.1348 55.4863 79.3047 55.6855C79.4746 55.8848 79.6182 56.1689 79.7354 56.5381C79.8525 56.9072 79.9111 57.3379 79.9111 57.8301V63.5518L80.8076 63.6396V64H76.8525V63.6396L77.749 63.5518V57.5752C77.749 56.3271 77.3477 55.7031 76.5449 55.7031C76.0176 55.7031 75.584 55.9434 75.2441 56.4238C74.9102 56.9043 74.7432 57.5342 74.7432 58.3135V63.5518L75.6484 63.6396V64H71.6846V63.6396L72.5898 63.5518V55.8613L71.5264 55.8789L71.5088 55.5186Z" fill="white"/>
</svg>
