<svg width="108" height="116" viewBox="0 0 108 116" fill="none" xmlns="http://www.w3.org/2000/svg">
<path d="M53.8072 0L107.614 58L53.8072 116L0 58L53.8072 0Z" fill="black"/>
<path d="M32.3271 64V63.6045L33.6807 63.5166V51.9414L32.3271 51.8535V51.458H37.0117C37.6621 51.458 38.248 51.5137 38.7695 51.625C39.2969 51.7363 39.7656 51.9121 40.1758 52.1523C40.5918 52.3926 40.9111 52.7178 41.1338 53.1279C41.3623 53.5322 41.4766 54.0127 41.4766 54.5693C41.4766 55.5713 41.1396 56.3535 40.4658 56.916C39.792 57.4727 38.8809 57.833 37.7324 57.9971V58.0146C38.2246 58.0205 38.6494 58.0996 39.0068 58.252C39.3701 58.4043 39.6572 58.6006 39.8682 58.8408C40.085 59.0752 40.29 59.3799 40.4834 59.7549C40.6123 60.0127 40.7939 60.4082 41.0283 60.9414C41.2686 61.4688 41.5059 61.9375 41.7402 62.3477C41.9277 62.6816 42.124 62.9395 42.3291 63.1211C42.5342 63.3027 42.707 63.4141 42.8477 63.4551C42.9883 63.4961 43.1494 63.5166 43.3311 63.5166V64H41.8721C41.4268 64 41.0752 63.9736 40.8174 63.9209C40.5596 63.8623 40.3018 63.7275 40.0439 63.5166C39.792 63.3057 39.5664 63.0156 39.3672 62.6465C39.168 62.2715 38.8281 61.4922 38.3477 60.3086C38.2773 60.1328 38.1748 59.9072 38.04 59.6318C37.9111 59.3506 37.7969 59.1396 37.6973 58.999C37.6035 58.8525 37.4893 58.7002 37.3545 58.542C37.2256 58.3838 37.0908 58.2725 36.9502 58.208C36.8154 58.1377 36.6719 58.1025 36.5195 58.1025C36.2617 58.1025 36.0654 58.1055 35.9307 58.1113V63.5166L37.2842 63.6045V64H32.3271ZM35.9307 57.6104C35.9951 57.6162 36.1152 57.6191 36.291 57.6191C37.334 57.6191 38.0664 57.3672 38.4883 56.8633C38.916 56.3535 39.1299 55.5947 39.1299 54.5869C39.1299 54.083 39.0684 53.6553 38.9453 53.3037C38.8281 52.9521 38.6582 52.6797 38.4355 52.4863C38.2129 52.293 37.9668 52.1553 37.6973 52.0732C37.4277 51.9912 37.1201 51.9502 36.7744 51.9502C36.5459 51.9502 36.2646 51.9736 35.9307 52.0205V57.6104ZM43.6123 59.5879C43.6123 59.1309 43.6562 58.6855 43.7441 58.252C43.832 57.8125 43.9756 57.3906 44.1748 56.9863C44.374 56.582 44.6172 56.2275 44.9043 55.9229C45.1914 55.6182 45.5459 55.375 45.9678 55.1934C46.3955 55.0059 46.8672 54.9121 47.3828 54.9121C47.8691 54.9121 48.3057 54.9824 48.6924 55.123C49.0791 55.2578 49.4014 55.4482 49.6592 55.6943C49.917 55.9404 50.1309 56.2422 50.3008 56.5996C50.4707 56.9512 50.5908 57.335 50.6611 57.751C50.7373 58.1611 50.7754 58.6123 50.7754 59.1045L50.5381 59.3242H45.8623V59.8604C45.8623 62.415 46.5889 63.6924 48.042 63.6924C49.0732 63.6924 49.8965 63.1768 50.5117 62.1455L50.8545 62.3564C50.0986 63.6279 49.0234 64.2637 47.6289 64.2637C46.2812 64.2637 45.2734 63.8477 44.6055 63.0156C43.9434 62.1836 43.6123 61.041 43.6123 59.5879ZM45.8623 58.9287L48.7012 58.8145C48.7188 58.5156 48.7275 58.2285 48.7275 57.9531C48.7275 57.1035 48.625 56.4502 48.4199 55.9932C48.2207 55.5361 47.8867 55.3076 47.418 55.3076C47.1367 55.3076 46.8936 55.4014 46.6885 55.5889C46.4893 55.7705 46.334 56.0342 46.2227 56.3799C46.1113 56.7256 46.0264 57.1035 45.9678 57.5137C45.915 57.918 45.8799 58.3896 45.8623 58.9287ZM52.1641 62.0928C52.1641 61.8057 52.208 61.5303 52.2959 61.2666C52.3896 60.9971 52.5391 60.7393 52.7441 60.4932C52.9492 60.2471 53.2012 60.0332 53.5 59.8516C53.7988 59.6699 54.168 59.5264 54.6074 59.4209C55.0527 59.3096 55.5449 59.2539 56.084 59.2539C56.3711 59.2539 56.6436 59.2656 56.9014 59.2891V58.0762C56.9014 57.6895 56.8926 57.376 56.875 57.1357C56.8633 56.8955 56.8281 56.6494 56.7695 56.3975C56.7109 56.1396 56.626 55.9434 56.5146 55.8086C56.4092 55.668 56.2568 55.5537 56.0576 55.4658C55.8643 55.3721 55.627 55.3252 55.3457 55.3252C54.4902 55.3252 53.8662 55.6621 53.4736 56.3359V56.3711C53.5732 56.3535 53.6641 56.3447 53.7461 56.3447C54.0508 56.3447 54.291 56.4385 54.4668 56.626C54.6426 56.8135 54.7305 57.083 54.7305 57.4346C54.7305 57.7393 54.625 57.9971 54.4141 58.208C54.2031 58.4131 53.9395 58.5156 53.623 58.5156C53.2773 58.5156 53.0049 58.3984 52.8057 58.1641C52.6064 57.9297 52.5068 57.6543 52.5068 57.3379C52.5068 56.6465 52.8232 56.0693 53.4561 55.6064C54.0947 55.1436 54.8271 54.9121 55.6533 54.9121C56.2393 54.9121 56.7373 54.9736 57.1475 55.0967C57.5635 55.2197 57.8945 55.3838 58.1406 55.5889C58.3867 55.7881 58.5771 56.0635 58.7119 56.415C58.8525 56.7607 58.9434 57.1152 58.9844 57.4785C59.0312 57.8418 59.0547 58.2871 59.0547 58.8145V63.5518L59.96 63.6396V64H57.165L56.9189 62.6113H56.9014C56.6143 63.168 56.2656 63.584 55.8555 63.8594C55.4512 64.1289 54.959 64.2637 54.3789 64.2637C53.6641 64.2637 53.1162 64.0498 52.7354 63.6221C52.3545 63.1943 52.1641 62.6846 52.1641 62.0928ZM54.291 61.9082C54.291 62.377 54.3789 62.7578 54.5547 63.0508C54.7305 63.3379 54.9883 63.4814 55.3281 63.4814C55.7266 63.4814 56.0869 63.2324 56.4092 62.7344C56.7373 62.2363 56.9014 61.627 56.9014 60.9062V59.6934C56.667 59.6641 56.4766 59.6494 56.3301 59.6494C56.0254 59.6494 55.7529 59.6904 55.5127 59.7725C55.2783 59.8545 55.0908 59.9658 54.9502 60.1064C54.8096 60.2471 54.6924 60.3965 54.5986 60.5547C54.5049 60.707 54.4375 60.877 54.3965 61.0645C54.3555 61.252 54.3262 61.4072 54.3086 61.5303C54.2969 61.6533 54.291 61.7793 54.291 61.9082ZM61.085 59.6406C61.085 59.207 61.1348 58.7734 61.2344 58.3398C61.334 57.9062 61.4922 57.4844 61.709 57.0742C61.9316 56.6582 62.1982 56.292 62.5088 55.9756C62.8252 55.6533 63.2148 55.3955 63.6777 55.2021C64.1406 55.0088 64.6445 54.9121 65.1895 54.9121C66.0039 54.9121 66.6777 55.1406 67.2109 55.5977C67.75 56.0547 68.0195 56.5996 68.0195 57.2324C68.0195 57.5488 67.9199 57.8184 67.7207 58.041C67.5215 58.2578 67.249 58.3662 66.9033 58.3662C66.5811 58.3662 66.3174 58.2637 66.1123 58.0586C65.9072 57.8535 65.8047 57.5957 65.8047 57.2852C65.8047 56.9922 65.8984 56.7402 66.0859 56.5293C66.2793 56.3184 66.5254 56.2129 66.8242 56.2129C66.8652 56.2129 66.9385 56.2188 67.0439 56.2305V56.1865C66.9736 56.0693 66.8887 55.9609 66.7891 55.8613C66.6953 55.7559 66.5312 55.6445 66.2969 55.5273C66.0625 55.4102 65.8018 55.3516 65.5146 55.3516C64.999 55.3516 64.5742 55.5449 64.2402 55.9316C63.9062 56.3184 63.6719 56.8193 63.5371 57.4346C63.4023 58.0439 63.335 58.7676 63.335 59.6055C63.335 62.3066 64.0557 63.6572 65.4971 63.6572C65.6846 63.6572 65.8574 63.6426 66.0156 63.6133C66.1797 63.5781 66.3701 63.5137 66.5869 63.4199C66.8096 63.3262 67.0293 63.168 67.2461 62.9453C67.4629 62.7227 67.6709 62.4414 67.8701 62.1016L68.2129 62.3037C67.4922 63.6104 66.4609 64.2637 65.1191 64.2637C62.4297 64.2637 61.085 62.7227 61.085 59.6406ZM68.7314 55.5537V55.1758H70.2256V53.2334L70.9814 53.1543L72.2207 52.8291L72.3877 53.084V55.1758H74.3125V55.5537L72.3877 55.6328V61.8203C72.3877 62.1777 72.4287 62.4766 72.5107 62.7168C72.5986 62.9512 72.71 63.1123 72.8447 63.2002C72.9854 63.2881 73.0967 63.3438 73.1787 63.3672C73.2666 63.3906 73.3574 63.4023 73.4512 63.4023C73.6328 63.4023 73.8057 63.3643 73.9697 63.2881C74.1396 63.2061 74.292 63.0889 74.4268 62.9365C74.5674 62.7842 74.6816 62.6465 74.7695 62.5234C74.8574 62.3945 74.957 62.2393 75.0684 62.0576L75.4463 62.2861C75.1357 62.8018 74.8662 63.1768 74.6377 63.4111C74.0811 63.9795 73.4395 64.2637 72.7129 64.2637C72.4375 64.2637 72.1914 64.2432 71.9746 64.2021C71.7637 64.167 71.5439 64.0879 71.3154 63.9648C71.0869 63.8418 70.8965 63.6777 70.7441 63.4727C70.5918 63.2617 70.4658 62.9746 70.3662 62.6113C70.2725 62.2422 70.2256 61.8115 70.2256 61.3193V55.6328L68.7314 55.5537Z" fill="white"/>
</svg>
