<svg width="108" height="116" viewBox="0 0 108 116" fill="none" xmlns="http://www.w3.org/2000/svg">
<path d="M53.8072 0L107.614 58L53.8072 116L0 58L53.8072 0Z" fill="black"/>
<path d="M17.2891 55.7646L17.377 51.458H26.9746L27.0625 55.7559H26.5791C26.4971 55.3047 26.4238 54.9414 26.3594 54.666C26.3008 54.3906 26.2275 54.1006 26.1396 53.7959C26.0518 53.4912 25.9609 53.2539 25.8672 53.084C25.7734 52.9141 25.6592 52.7441 25.5244 52.5742C25.3896 52.4043 25.2344 52.2812 25.0586 52.2051C24.8887 52.123 24.6895 52.0586 24.4609 52.0117C24.2324 51.959 23.9688 51.9326 23.6699 51.9326C23.6465 51.9326 23.5967 51.9355 23.5205 51.9414C23.4502 51.9414 23.3857 51.9414 23.3271 51.9414V63.5166L24.6895 63.6045V64H19.7324V63.6045L21.0771 63.5166L21.0244 51.9502C20.9658 51.9502 20.8984 51.9502 20.8223 51.9502C20.752 51.9443 20.7051 51.9414 20.6816 51.9414C20.418 51.9414 20.1836 51.9561 19.9785 51.9854C19.7734 52.0146 19.5859 52.0703 19.416 52.1523C19.252 52.2344 19.1084 52.3223 18.9854 52.416C18.8623 52.5098 18.748 52.6445 18.6426 52.8203C18.5371 52.9961 18.4463 53.166 18.3701 53.3301C18.2998 53.4941 18.2236 53.7197 18.1416 54.0068C18.0654 54.2881 17.9424 54.874 17.7725 55.7646H17.2891ZM27.8711 62.0928C27.8711 61.8057 27.915 61.5303 28.0029 61.2666C28.0967 60.9971 28.2461 60.7393 28.4512 60.4932C28.6562 60.2471 28.9082 60.0332 29.207 59.8516C29.5059 59.6699 29.875 59.5264 30.3145 59.4209C30.7598 59.3096 31.252 59.2539 31.791 59.2539C32.0781 59.2539 32.3506 59.2656 32.6084 59.2891V58.0762C32.6084 57.6895 32.5996 57.376 32.582 57.1357C32.5703 56.8955 32.5352 56.6494 32.4766 56.3975C32.418 56.1396 32.333 55.9434 32.2217 55.8086C32.1162 55.668 31.9639 55.5537 31.7646 55.4658C31.5713 55.3721 31.334 55.3252 31.0527 55.3252C30.1973 55.3252 29.5732 55.6621 29.1807 56.3359V56.3711C29.2803 56.3535 29.3711 56.3447 29.4531 56.3447C29.7578 56.3447 29.998 56.4385 30.1738 56.626C30.3496 56.8135 30.4375 57.083 30.4375 57.4346C30.4375 57.7393 30.332 57.9971 30.1211 58.208C29.9102 58.4131 29.6465 58.5156 29.3301 58.5156C28.9844 58.5156 28.7119 58.3984 28.5127 58.1641C28.3135 57.9297 28.2139 57.6543 28.2139 57.3379C28.2139 56.6465 28.5303 56.0693 29.1631 55.6064C29.8018 55.1436 30.5342 54.9121 31.3604 54.9121C31.9463 54.9121 32.4443 54.9736 32.8545 55.0967C33.2705 55.2197 33.6016 55.3838 33.8477 55.5889C34.0938 55.7881 34.2842 56.0635 34.4189 56.415C34.5596 56.7607 34.6504 57.1152 34.6914 57.4785C34.7383 57.8418 34.7617 58.2871 34.7617 58.8145V63.5518L35.667 63.6396V64H32.8721L32.626 62.6113H32.6084C32.3213 63.168 31.9727 63.584 31.5625 63.8594C31.1582 64.1289 30.666 64.2637 30.0859 64.2637C29.3711 64.2637 28.8232 64.0498 28.4424 63.6221C28.0615 63.1943 27.8711 62.6846 27.8711 62.0928ZM29.998 61.9082C29.998 62.377 30.0859 62.7578 30.2617 63.0508C30.4375 63.3379 30.6953 63.4814 31.0352 63.4814C31.4336 63.4814 31.7939 63.2324 32.1162 62.7344C32.4443 62.2363 32.6084 61.627 32.6084 60.9062V59.6934C32.374 59.6641 32.1836 59.6494 32.0371 59.6494C31.7324 59.6494 31.46 59.6904 31.2197 59.7725C30.9854 59.8545 30.7979 59.9658 30.6572 60.1064C30.5166 60.2471 30.3994 60.3965 30.3057 60.5547C30.2119 60.707 30.1445 60.877 30.1035 61.0645C30.0625 61.252 30.0332 61.4072 30.0156 61.5303C30.0039 61.6533 29.998 61.7793 29.998 61.9082ZM36.792 59.6406C36.792 59.207 36.8418 58.7734 36.9414 58.3398C37.041 57.9062 37.1992 57.4844 37.416 57.0742C37.6387 56.6582 37.9053 56.292 38.2158 55.9756C38.5322 55.6533 38.9219 55.3955 39.3848 55.2021C39.8477 55.0088 40.3516 54.9121 40.8965 54.9121C41.7109 54.9121 42.3848 55.1406 42.918 55.5977C43.457 56.0547 43.7266 56.5996 43.7266 57.2324C43.7266 57.5488 43.627 57.8184 43.4277 58.041C43.2285 58.2578 42.9561 58.3662 42.6104 58.3662C42.2881 58.3662 42.0244 58.2637 41.8193 58.0586C41.6143 57.8535 41.5117 57.5957 41.5117 57.2852C41.5117 56.9922 41.6055 56.7402 41.793 56.5293C41.9863 56.3184 42.2324 56.2129 42.5312 56.2129C42.5723 56.2129 42.6455 56.2188 42.751 56.2305V56.1865C42.6807 56.0693 42.5957 55.9609 42.4961 55.8613C42.4023 55.7559 42.2383 55.6445 42.0039 55.5273C41.7695 55.4102 41.5088 55.3516 41.2217 55.3516C40.7061 55.3516 40.2812 55.5449 39.9473 55.9316C39.6133 56.3184 39.3789 56.8193 39.2441 57.4346C39.1094 58.0439 39.042 58.7676 39.042 59.6055C39.042 62.3066 39.7627 63.6572 41.2041 63.6572C41.3916 63.6572 41.5645 63.6426 41.7227 63.6133C41.8867 63.5781 42.0771 63.5137 42.2939 63.4199C42.5166 63.3262 42.7363 63.168 42.9531 62.9453C43.1699 62.7227 43.3779 62.4414 43.5771 62.1016L43.9199 62.3037C43.1992 63.6104 42.168 64.2637 40.8262 64.2637C38.1367 64.2637 36.792 62.7227 36.792 59.6406ZM44.7549 52.1523V51.792L46.5918 51.5986L47.8311 51.2734L47.9541 51.5283V56.4414H47.9893C48.6865 55.4219 49.5889 54.9121 50.6963 54.9121C50.9072 54.9121 51.1094 54.9297 51.3027 54.9648C51.4961 55 51.71 55.0791 51.9443 55.2021C52.1787 55.3252 52.3809 55.4863 52.5508 55.6855C52.7207 55.8848 52.8643 56.1689 52.9814 56.5381C53.0986 56.9072 53.1572 57.3379 53.1572 57.8301V63.5518L54.0537 63.6396V64H50.0986V63.6396L50.9951 63.5518V57.5752C50.9951 56.3271 50.5938 55.7031 49.791 55.7031C49.2637 55.7031 48.8301 55.9434 48.4902 56.4238C48.1562 56.9043 47.9893 57.5342 47.9893 58.3135V63.5518L48.8945 63.6396V64H44.9307V63.6396L45.8359 63.5518V52.1523H44.7549ZM54.9766 67.0498C54.9766 66.7041 55.0791 66.4141 55.2842 66.1797C55.4951 65.9453 55.7588 65.8281 56.0752 65.8281C56.415 65.8281 56.6699 65.9336 56.8398 66.1445C57.0156 66.3555 57.1035 66.6162 57.1035 66.9268C57.1035 67.0439 57.0654 67.1846 56.9893 67.3486C56.9189 67.5127 56.8252 67.6357 56.708 67.7178V67.7529C56.9131 67.7471 57.1064 67.6738 57.2881 67.5332C57.4697 67.3984 57.6338 67.2021 57.7803 66.9443C57.9268 66.6865 58.0381 66.4697 58.1143 66.2939C58.1904 66.1182 58.2783 65.8984 58.3779 65.6348L58.7734 64.2988L55.0381 55.6328L54.168 55.5361V55.1758H58.3252V55.5361L57.376 55.6328L59.6611 61.3633L61.3838 55.6328L60.417 55.5361V55.1758H62.8076V55.5361L61.8936 55.6328L58.9756 65.5117C58.7705 66.1094 58.5596 66.6074 58.3428 67.0059C58.126 67.4043 57.9062 67.6943 57.6836 67.876C57.4668 68.0635 57.2646 68.1895 57.0771 68.2539C56.8896 68.3184 56.6816 68.3506 56.4531 68.3506C56.0137 68.3506 55.6562 68.2275 55.3809 67.9814C55.1113 67.7354 54.9766 67.4248 54.9766 67.0498ZM63.2734 59.6406C63.2734 58.7559 63.4434 57.9531 63.7832 57.2324C64.1289 56.5117 64.6094 55.9463 65.2246 55.5361C65.8457 55.1201 66.5459 54.9121 67.3252 54.9121C67.9697 54.9121 68.5498 55.0469 69.0654 55.3164C69.5869 55.5801 70.0029 55.9346 70.3135 56.3799C70.6299 56.8252 70.8701 57.3232 71.0342 57.874C71.2041 58.4189 71.2891 58.9902 71.2891 59.5879C71.2891 60.4492 71.125 61.2344 70.7969 61.9434C70.4688 62.6523 69.9971 63.2178 69.3818 63.6396C68.7725 64.0557 68.0811 64.2637 67.3076 64.2637C66.6221 64.2637 66.0156 64.1436 65.4883 63.9033C64.9668 63.6572 64.5449 63.3203 64.2227 62.8926C63.9062 62.459 63.6689 61.9697 63.5107 61.4248C63.3525 60.8799 63.2734 60.2852 63.2734 59.6406ZM65.5234 59.5352C65.5234 60.1855 65.5557 60.7686 65.6201 61.2842C65.6846 61.7939 65.7842 62.248 65.9189 62.6465C66.0537 63.0391 66.2354 63.3408 66.4639 63.5518C66.6924 63.7627 66.9619 63.8682 67.2725 63.8682C68.4502 63.8682 69.0391 62.459 69.0391 59.6406C69.0391 58.9316 69.0098 58.3223 68.9512 57.8125C68.8984 57.3027 68.8047 56.8545 68.6699 56.4678C68.541 56.0752 68.3594 55.7852 68.125 55.5977C67.8906 55.4043 67.6064 55.3076 67.2725 55.3076C66.9619 55.3076 66.6924 55.4131 66.4639 55.624C66.2354 55.835 66.0537 56.1338 65.9189 56.5205C65.7842 56.9072 65.6846 57.3496 65.6201 57.8477C65.5557 58.3457 65.5234 58.9082 65.5234 59.5352ZM72.4844 55.5186L74.3213 55.3252L75.5605 55L75.7188 55.2549L75.6836 56.4414H75.7188C76.416 55.4219 77.3184 54.9121 78.4258 54.9121C78.6367 54.9121 78.8389 54.9297 79.0322 54.9648C79.2256 55 79.4395 55.0791 79.6738 55.2021C79.9082 55.3252 80.1104 55.4863 80.2803 55.6855C80.4502 55.8848 80.5938 56.1689 80.7109 56.5381C80.8281 56.9072 80.8867 57.3379 80.8867 57.8301V63.5518L81.7832 63.6396V64H77.8281V63.6396L78.7246 63.5518V57.5752C78.7246 56.3271 78.3232 55.7031 77.5205 55.7031C76.9932 55.7031 76.5596 55.9434 76.2197 56.4238C75.8857 56.9043 75.7188 57.5342 75.7188 58.3135V63.5518L76.624 63.6396V64H72.6602V63.6396L73.5654 63.5518V55.8613L72.502 55.8789L72.4844 55.5186ZM85.9053 63.833C86.5732 63.833 87.0654 63.71 87.3818 63.4639C87.7041 63.2178 87.8652 62.9102 87.8652 62.541C87.8652 62.3477 87.833 62.1777 87.7686 62.0312C87.71 61.8789 87.6104 61.7354 87.4697 61.6006C87.335 61.46 87.1533 61.3193 86.9248 61.1787C86.7021 61.0322 86.4238 60.8682 86.0898 60.6865C85.7969 60.5166 85.4863 60.3408 85.1582 60.1592C84.8301 59.9717 84.5254 59.7578 84.2441 59.5176C83.9688 59.2715 83.7373 58.9873 83.5498 58.665C83.3682 58.3428 83.2773 57.9561 83.2773 57.5049C83.2773 57.1064 83.3535 56.7461 83.5059 56.4238C83.6582 56.1016 83.8691 55.8291 84.1387 55.6064C84.4141 55.3779 84.7393 55.2021 85.1143 55.0791C85.4951 54.9561 85.9111 54.8945 86.3623 54.8945C86.7021 54.8945 87.042 54.9385 87.3818 55.0264C87.7275 55.1084 88.0381 55.2344 88.3135 55.4043C88.5889 55.5742 88.8115 55.7852 88.9814 56.0371C89.1514 56.2891 89.2363 56.582 89.2363 56.916C89.2363 57.0449 89.2129 57.1709 89.166 57.2939C89.125 57.417 89.0605 57.5283 88.9727 57.6279C88.8848 57.7275 88.7764 57.8096 88.6475 57.874C88.5244 57.9326 88.3809 57.9619 88.2168 57.9619C87.877 57.9619 87.6221 57.8682 87.4521 57.6807C87.2822 57.4932 87.1973 57.2646 87.1973 56.9951C87.1973 56.8252 87.2207 56.6816 87.2676 56.5645C87.3145 56.4414 87.376 56.3418 87.4521 56.2656C87.5342 56.1836 87.625 56.125 87.7246 56.0898C87.8301 56.0488 87.9355 56.0283 88.041 56.0283H88.1201V56.0107C88.0615 55.917 87.9766 55.8291 87.8652 55.7471C87.7539 55.6592 87.6221 55.583 87.4697 55.5186C87.3174 55.4482 87.1475 55.3926 86.96 55.3516C86.7725 55.3105 86.5732 55.29 86.3623 55.29C86.0518 55.29 85.7881 55.3311 85.5713 55.4131C85.3545 55.4951 85.1758 55.6006 85.0352 55.7295C84.9004 55.8525 84.8008 55.9902 84.7363 56.1426C84.6719 56.2949 84.6396 56.4414 84.6396 56.582C84.6396 56.752 84.666 56.8984 84.7188 57.0215C84.7715 57.1445 84.8623 57.2705 84.9912 57.3994C85.126 57.5225 85.3076 57.6572 85.5361 57.8037C85.7705 57.9502 86.0635 58.126 86.415 58.3311C86.7549 58.5068 87.1123 58.6943 87.4873 58.8936C87.8682 59.0928 88.2168 59.3242 88.5332 59.5879C88.8496 59.8457 89.1104 60.1445 89.3154 60.4844C89.5264 60.8184 89.6318 61.2109 89.6318 61.6621C89.6318 62.043 89.5586 62.3916 89.4121 62.708C89.2715 63.0244 89.0488 63.2969 88.7441 63.5254C88.4453 63.7539 88.0615 63.9297 87.5928 64.0527C87.1299 64.1816 86.5791 64.2461 85.9404 64.2461C85.6357 64.2461 85.3105 64.208 84.9648 64.1318C84.6191 64.0557 84.2998 63.9355 84.0068 63.7715C83.7139 63.6016 83.4707 63.3848 83.2773 63.1211C83.084 62.8516 82.9873 62.5234 82.9873 62.1367C82.9873 61.9727 83.0137 61.8145 83.0664 61.6621C83.1191 61.5098 83.1924 61.375 83.2861 61.2578C83.3857 61.1348 83.5059 61.0381 83.6465 60.9678C83.7871 60.8975 83.9482 60.8623 84.1299 60.8623C84.2881 60.8623 84.4287 60.8916 84.5518 60.9502C84.6748 61.0029 84.7773 61.0762 84.8594 61.1699C84.9473 61.2578 85.0146 61.3633 85.0615 61.4863C85.1084 61.6094 85.1348 61.7412 85.1406 61.8818C85.1406 62.0459 85.1113 62.1924 85.0527 62.3213C84.9941 62.4443 84.918 62.5469 84.8242 62.6289C84.7305 62.7109 84.6221 62.7754 84.499 62.8223C84.3818 62.8633 84.2646 62.8838 84.1475 62.8838C84.124 62.8838 84.0977 62.8838 84.0684 62.8838C84.0449 62.8838 84.0215 62.8809 83.998 62.875V62.8926C84.0508 63.0098 84.1299 63.124 84.2354 63.2354C84.3408 63.3467 84.4727 63.4463 84.6309 63.5342C84.7949 63.6221 84.9824 63.6953 85.1934 63.7539C85.4102 63.8066 85.6475 63.833 85.9053 63.833Z" fill="white"/>
</svg>
